<?xml version="1.0" encoding="utf-8"?>
<!-- Generator: Adobe Illustrator 27.2.0, SVG Export Plug-In . SVG Version: 6.00 Build 0)  -->
<svg version="1.1" xmlns="http://www.w3.org/2000/svg" xmlns:xlink="http://www.w3.org/1999/xlink" x="0px" y="0px"
	 viewBox="0 0 200 200" style="enable-background:new 0 0 200 200;" xml:space="preserve">
<style type="text/css">
	.st0{fill:#3BFF57;}
	.st1{fill:#3ADD3A;}
	.st2{fill:#87FF48;}
	.st3{fill:#34CE3B;}
	.st4{fill:#FFFFFF;}
	.st5{fill:#D18133;}
	.st6{fill:#C46C23;}
</style>
<g id="_x3C_Group1_x3E_">
	<path class="st0" d="M94,109c0-6.46,1.26-11.3-3.56-16.44C86.26,88.12,80.08,85.33,74,85c-2.76-0.15-7.83-0.67-10,0
		c-7.97,2.45-10.63,3.8-11.87,5.38c-2.88,3.66,6.32,14.36,20.34,17.23c6.64,1.36,12.51,1.9,16.61,1.13"/>
	<path class="st1" d="M66,92c-0.27-0.37,9.9-2.42,20,7c7.41,6.91,14.07,16.79,14.36,24.54c0.09,2.31,0.05,4.24,0,5.64
		c-0.33,0-0.67,0-1,0c0.07-1.39,0.13-3.48,0-6c-0.23-4.6-6.3-14.59-13.37-22.19C77.7,92.08,66.15,92.21,66,92z"/>
	<path class="st2" d="M169,78c-4.69,4.69-15.21,15-31.5,15s-22.57-4.69-27.5,0c-2.11,2,12-20,28-23C154.01,67,175,72,169,78z"/>
	<path class="st3" d="M159,77c-0.02-0.21-18.18-1.5-27,2c-5.93,2.35-19.44,9.16-23,14c-7.56,10.28-8.68,18.09-8.94,28.43
		c-0.08,3.09-0.06,5.7,0,7.57c0.34,0,0.68,0,1.02,0c-0.07-1.87-0.13-4.67,0-8.05c0.24-6.18,2.71-17.75,9.93-27.95
		c2.81-3.96,14.9-10.81,22-13C146,76,159.02,77.23,159,77z"/>
	<path class="st4" d="M127.82,87.49"/>
</g>
<g id="Layer_1">
	<g>
		<polygon class="st5" points="62,137.75 71.07,199.5 125.73,199.5 134,137.75 		"/>
		<path class="st6" d="M132.62,148.05l1.38-10.3H62l9.07,61.75H83.1C81.96,169.9,98.27,140.23,132.62,148.05z"/>
		<path class="st5" d="M132.67,142.5H63.33c-3.85,0-7-3.15-7-7l0,0c0-3.85,3.15-7,7-7h69.33c3.85,0,7,3.15,7,7l0,0
			C139.67,139.35,136.52,142.5,132.67,142.5z"/>
	</g>
</g>
</svg>
