<?xml version="1.0" encoding="utf-8"?>
<!-- Generator: Adobe Illustrator 27.2.0, SVG Export Plug-In . SVG Version: 6.00 Build 0)  -->
<svg version="1.1" id="Layer_1" xmlns="http://www.w3.org/2000/svg" xmlns:xlink="http://www.w3.org/1999/xlink" x="0px" y="0px"
	 viewBox="0 0 200 200" style="enable-background:new 0 0 200 200;" xml:space="preserve">
<style type="text/css">
	.st0{fill:none;}
	.st1{fill:#5CAA2E;}
	.st2{fill:#144714;}
	.st3{fill:#1C5E1C;}
	.st4{fill:#3AA33A;}
	.st5{fill:#EF6129;}
	.st6{fill:#D15226;}
</style>
<line class="st0" x1="165.7" y1="151.9" x2="165.7" y2="151.5"/>
<line class="st0" x1="165.7" y1="151.5" x2="163.8" y2="151.9"/>
<g id="_x32_">
	<g>
		<g>
			<path class="st1" d="M90.2,77.8c0,0,5.8-22.5,0.2-41.5C84.7,17.4,70,10,59.6,8.5C72.3,20.4,79.8,38.1,81.7,49
				S85.9,70.4,90.2,77.8z"/>
			<path class="st2" d="M91.4,110.1c0-7.9-0.3-15.9-0.9-23.9c-0.6-7.9-1.3-15.9-2.4-23.8c-0.6-3.9-1.2-7.9-2-11.8
				c-0.8-3.9-1.7-7.8-2.8-11.6c-1.1-3.8-2.4-7.6-4-11.2c-1.7-3.6-3.6-7.1-6.3-10.1c2.7,3,4.7,6.5,6.4,10c1.7,3.6,3,7.4,4.2,11.2
				c1.2,3.8,2.1,7.7,2.9,11.6c0.8,3.9,1.5,7.8,2.1,11.8c1.2,7.9,2.1,15.8,2.7,23.8c0.6,8,1,15.9,1.1,23.9H91.4z"/>
		</g>
		<g>
			<path class="st3" d="M100.9,104.4c0,0-2.5-11.8,3.2-22.6s22.2-23.3,34.7-26.5c-9.7,9.5-17.8,18.6-22,30.6
				C112.5,98,102.9,103.9,100.9,104.4z"/>
			<path class="st2" d="M96.4,119.1c1.1-5.6,2.8-11.1,4.8-16.5c2-5.3,4.4-10.6,7.1-15.5c0.7-1.2,1.3-2.5,2.1-3.7l2.3-3.6
				c0.8-1.2,1.7-2.3,2.5-3.5l1.2-1.7c0.4-0.6,0.9-1.1,1.3-1.7l2.7-3.3l2.9-3.1l1.5-1.5l1.6-1.4l3.2-2.9l-3.1,2.9l-1.6,1.4l-1.4,1.6
				l-2.9,3.1L118,73c-0.4,0.6-0.9,1.1-1.3,1.7l-1.2,1.8c-0.8,1.2-1.7,2.3-2.4,3.5l-2.2,3.6c-0.8,1.2-1.4,2.5-2.1,3.7
				c-2.7,5-5,10.2-6.9,15.6c-1.9,5.3-3.5,10.8-4.5,16.4L96.4,119.1z"/>
		</g>
		<g>
			<path class="st4" d="M98.3,82.3c0,0-3.2-7.3,0-23.9s20-36.6,45.8-38.2c-15.5,8.1-25.8,21-30.5,33.4
				C108.8,65.9,104.8,72.1,98.3,82.3z"/>
			<path class="st2" d="M92.9,113.1c0.7-7.7,1.8-15.3,3.3-22.9c1.5-7.6,3.4-15.1,5.8-22.4c1.2-3.7,2.5-7.3,4-10.8
				c1.5-3.6,3.2-7,5.1-10.4c3.7-6.7,8.4-13,14.4-17.9c-5.9,5-10.5,11.3-14.2,18c-1.8,3.4-3.5,6.8-4.9,10.4
				c-1.4,3.6-2.8,7.2-3.9,10.8c-2.3,7.3-4.1,14.8-5.5,22.4c-1.4,7.6-2.5,15.2-3.1,22.8L92.9,113.1z"/>
		</g>
		<g>
			<path class="st3" d="M88.2,105c0,0,4.3-9-2.4-21S59.1,64.6,46.7,72.3C57.8,74.9,71,82.3,73.9,90.1C76.8,97.8,85.2,105,88.2,105z"
				/>
			<path class="st2" d="M90.4,120.7c-0.2-5.6-1.3-11.2-2.8-16.7c-1.6-5.4-3.9-10.7-7.1-15.4c-1.6-2.4-3.4-4.5-5.4-6.5
				c-1-1-2.1-1.9-3.2-2.8c-1.2-0.8-2.3-1.7-3.6-2.3c-1.2-0.8-2.5-1.3-3.8-1.9c-1.3-0.5-2.6-1.1-4-1.4c-2.7-0.9-5.5-1.3-8.3-1.7
				c2.8,0.3,5.7,0.7,8.4,1.5c1.4,0.3,2.7,0.9,4,1.4c1.3,0.6,2.6,1.2,3.8,1.9c1.3,0.7,2.4,1.5,3.6,2.3c1.1,0.9,2.3,1.8,3.3,2.8
				c2.1,2,4,4.1,5.6,6.5c3.3,4.7,5.7,10,7.4,15.4c1.7,5.5,2.8,11.1,3.1,16.9L90.4,120.7z"/>
		</g>
		<g>
			<path class="st4" d="M108.8,99.4c0,0-0.7-10,9.8-18.7c10.6-8.7,31.9-8.5,40.7,3.1c-11.3-1.5-26.3,0.6-31.8,6.8
				C122,96.8,111.6,100.5,108.8,99.4z"/>
			<path class="st2" d="M100.2,112.9c2.4-5.2,5.4-10.1,9-14.6c3.5-4.5,7.7-8.5,12.4-11.8c2.4-1.6,4.9-2.9,7.6-4
				c1.3-0.6,2.7-1,4.1-1.4c1.4-0.3,2.8-0.7,4.2-0.9c1.4-0.3,2.8-0.3,4.3-0.4c1.4,0,2.9,0,4.3,0.2c2.9,0.2,5.6,0.8,8.4,1.6
				c-2.8-0.7-5.6-1.3-8.4-1.4c-1.4-0.2-2.8-0.1-4.3-0.1c-1.4,0.1-2.8,0.2-4.2,0.5c-1.4,0.2-2.8,0.6-4.1,0.9c-1.3,0.4-2.7,0.9-4,1.4
				c-2.6,1.1-5.1,2.5-7.4,4.1c-4.6,3.2-8.7,7.3-12.1,11.8c-3.4,4.5-6.4,9.4-8.6,14.5L100.2,112.9z"/>
		</g>
		<g>
			<path class="st3" d="M87.9,80.4c0,0-7.2-2.4-13.2-14.7s-14.4-32.4-35.3-35c20.2-2.6,34.8,5.9,42.7,17.7S89.6,75,87.9,80.4z"/>
			<path class="st2" d="M92.9,118.6c0.1-7.6-0.6-15.3-1.6-22.9c-1.1-7.6-2.7-15.1-5-22.4c-1.2-3.7-2.5-7.2-4.1-10.7
				c-1.6-3.5-3.4-6.9-5.6-10.1c-2.2-3.2-4.5-6.2-7.3-8.9c-2.8-2.7-5.8-5-9.1-7c3.3,1.9,6.4,4.2,9.2,6.9c2.8,2.6,5.2,5.7,7.4,8.8
				c2.2,3.2,4.1,6.6,5.7,10c1.7,3.5,3.1,7.1,4.3,10.7c2.4,7.3,4.1,14.8,5.3,22.5c1.1,7.6,1.8,15.3,1.9,23L92.9,118.6z"/>
		</g>
		<g>
			<path class="st3" d="M94.2,74.8c0,0-9.5-25.4-5.2-48.2s20.4-33.1,32.4-36.1C108.1,6,101.5,27.5,100.6,40.4S98.3,65.8,94.2,74.8z"
				/>
			<path class="st2" d="M95.7,112.6c-0.9-9.3-1.4-18.6-1.6-27.9c-0.2-9.3-0.2-18.6,0.2-27.9c0.2-4.7,0.6-9.3,1.1-13.9
				c0.5-4.6,1.1-9.2,2-13.8c0.9-4.6,1.9-9.1,3.5-13.5c1.5-4.4,3.5-8.7,6.2-12.5c-2.7,3.8-4.6,8.1-6.1,12.5c-1.5,4.4-2.5,9-3.3,13.5
				c-0.8,4.6-1.4,9.2-1.9,13.8c-0.4,4.6-0.8,9.3-0.9,13.9c-0.4,9.3-0.3,18.6,0,27.9c0.3,9.3,0.9,18.6,1.9,27.8L95.7,112.6z"/>
		</g>
	</g>
	<g>
		<polygon class="st5" points="60.2,118.9 69.2,180.6 123.9,180.6 132.2,118.9 		"/>
		<path class="st6" d="M130.8,129.2l1.4-10.3h-72l9.1,61.8h12C80.1,151,96.4,121.4,130.8,129.2z"/>
		<path class="st5" d="M130.8,123.6H61.5c-3.8,0-7-3.1-7-7l0,0c0-3.9,3.2-7,7-7h69.3c3.9,0,7,3.1,7,7l0,0
			C137.8,120.5,134.7,123.6,130.8,123.6z"/>
	</g>
</g>
</svg>
