<?xml version="1.0" encoding="utf-8"?>
<!-- Generator: Adobe Illustrator 27.2.0, SVG Export Plug-In . SVG Version: 6.00 Build 0)  -->
<svg version="1.1" id="Layer_1" xmlns="http://www.w3.org/2000/svg" xmlns:xlink="http://www.w3.org/1999/xlink" x="0px" y="0px"
	 viewBox="0 0 200 200" style="enable-background:new 0 0 200 200;" xml:space="preserve">
<style type="text/css">
	.st0{fill:#5CAA2E;}
	.st1{fill:#506815;}
	.st2{fill:#1C5E1C;}
	.st3{fill:#347A34;}
	.st4{fill:#388C38;}
	.st5{fill:#D18133;}
	.st6{fill:#C46C23;}
</style>
<g id="_x34_">
	<g>
		<path class="st0" d="M98.16,109.86c0,0-10.61-3.77-8.18-12.37s8.84-8.13,15.46-6.06c6.62,2.06,13.53,2.3,14.14,2.06
			c-5.94,12.37-5.22,15.53-13.22,16.37C98.35,110.71,98.16,109.86,98.16,109.86z"/>
		<path class="st0" d="M95.44,51.64c0,0-8.01-1.21-18.92-12.01C65.6,28.83,65.36,15.86,63.91,12.7c9.58-0.61,24.62-0.61,30.69,16.25
			C100.65,45.82,95.44,51.64,95.44,51.64z"/>
		<g>
			<path class="st1" d="M96.17,48.65c-0.09-0.8-0.39-1.74-0.7-2.6c-0.33-0.87-0.71-1.73-1.14-2.57c-0.85-1.68-1.82-3.3-2.87-4.88
				c-2.11-3.15-4.51-6.11-7.02-8.96c-2.53-2.84-5.2-5.56-8.07-8.06c-1.43-1.25-2.92-2.44-4.48-3.53c-1.56-1.08-3.18-2.11-4.97-2.79
				c1.8,0.65,3.44,1.65,5.03,2.69c1.59,1.06,3.11,2.22,4.57,3.45c2.93,2.45,5.67,5.12,8.27,7.92s5.09,5.71,7.31,8.84
				c1.11,1.57,2.14,3.19,3.05,4.89c0.89,1.73,1.74,3.42,2.09,5.52L96.17,48.65z"/>
			<path class="st1" d="M71.84,12.92c1.04,1.01,1.82,2.27,2.44,3.58c0.6,1.33,1.03,2.73,1.3,4.16l0.04,0.2l-0.2-0.05
				c-0.7-0.16-1.45-0.12-2.17-0.03c-0.73,0.09-1.46,0.22-2.18,0.39c-1.44,0.33-2.88,0.74-4.29,1.2c1.38-0.55,2.79-1.03,4.24-1.4
				c0.72-0.19,1.46-0.33,2.2-0.43c0.74-0.09,1.5-0.15,2.27,0.02l-0.16,0.15c-0.14-0.7-0.29-1.41-0.5-2.09
				c-0.2-0.69-0.46-1.36-0.73-2.03c-0.29-0.66-0.61-1.3-0.98-1.92C72.74,14.05,72.33,13.45,71.84,12.92z"/>
			<path class="st1" d="M77.79,14.4c0.92,0.46,1.58,1.31,2.06,2.2c0.47,0.91,0.8,1.89,0.98,2.89c0.12,0.5,0.15,1.01,0.23,1.51
				c0.03,0.51,0.08,1.02,0.09,1.53c0.02,1.02-0.02,2.04-0.11,3.05l-0.01,0.15l-0.15-0.03c-1.06-0.23-2.13-0.43-3.21-0.46
				c-1.08-0.06-2.17,0-3.25,0.15c-1.08,0.14-2.14,0.39-3.18,0.72c-1.04,0.32-2.06,0.72-3.02,1.24c1.89-1.1,4-1.81,6.17-2.13
				c1.08-0.17,2.18-0.24,3.28-0.2c1.1,0.01,2.19,0.2,3.27,0.42l-0.16,0.11l0.11-1.51c0.03-0.5,0.02-1.01,0.03-1.51
				c0-0.5-0.04-1.01-0.06-1.51c-0.07-0.5-0.1-1.01-0.2-1.5c-0.16-1-0.47-1.97-0.92-2.87C79.29,15.77,78.69,14.9,77.79,14.4z"/>
			<path class="st1" d="M85.12,17.07c1.27,2.02,1.85,4.42,1.96,6.8c0.02,1.19-0.01,2.4-0.24,3.57c-0.19,1.18-0.52,2.33-0.92,3.46
				l-0.04,0.11l-0.12-0.03c-1.13-0.33-2.35-0.3-3.54-0.22c-1.19,0.1-2.38,0.3-3.56,0.54c-2.35,0.51-4.67,1.17-6.95,1.93
				c2.25-0.86,4.56-1.58,6.91-2.1c1.18-0.26,2.37-0.48,3.57-0.59c1.2-0.1,2.44-0.14,3.63,0.19l-0.16,0.08
				c0.17-0.57,0.39-1.12,0.54-1.69c0.13-0.57,0.32-1.14,0.4-1.73c0.24-1.16,0.29-2.35,0.28-3.53c-0.03-1.18-0.2-2.36-0.49-3.51
				C86.12,19.23,85.72,18.1,85.12,17.07z"/>
			<path class="st1" d="M92.48,23.72c0.12,2.31,0.11,4.64-0.07,6.95c-0.08,1.16-0.22,2.31-0.42,3.46c-0.22,1.14-0.47,2.3-1.04,3.34
				l-0.05,0.09l-0.1-0.02c-1.02-0.24-2.1-0.2-3.16-0.1c-1.06,0.11-2.12,0.27-3.17,0.48c-2.1,0.43-4.18,0.94-6.25,1.52
				c2.04-0.68,4.11-1.26,6.21-1.7c1.05-0.22,2.11-0.4,3.18-0.52c1.07-0.11,2.16-0.18,3.25,0.06l-0.15,0.06
				c0.54-1,0.82-2.13,1.05-3.26c0.22-1.13,0.37-2.28,0.47-3.43C92.42,28.36,92.49,26.04,92.48,23.72z"/>
		</g>
		<path class="st2" d="M101.32,81.24c0,0-5.23-16.01,4.12-21.83s19.54-0.36,26.09-5.09c-1.64,13.65-4.02,16.03-9.36,19.83
			C116.82,77.94,101.32,81.24,101.32,81.24z"/>
		<path class="st2" d="M93.98,84.69c0,0-14.86,1.09-23.05-12.92s1.27-26.09,2.37-32.88c12.01,4.13,21.78,13.22,24.22,24.21
			C99.97,74.09,94.65,83.42,93.98,84.69z"/>
		<g>
			<path class="st1" d="M93.53,84.22c-0.91-0.63-1.52-1.33-2.18-2.06c-0.64-0.73-1.21-1.51-1.77-2.29c-1.1-1.58-2.07-3.23-2.98-4.91
				c-1.8-3.37-3.31-6.88-4.69-10.42c-1.38-3.55-2.6-7.16-3.56-10.84c-0.48-1.84-0.89-3.7-1.19-5.58c-0.29-1.88-0.52-3.78-0.4-5.68
				c-0.08,1.9,0.19,3.79,0.51,5.66c0.33,1.87,0.78,3.71,1.29,5.54c1.03,3.65,2.31,7.23,3.76,10.73s3.05,6.94,4.91,10.23
				c0.94,1.64,1.94,3.24,3.05,4.75c0.56,0.75,1.14,1.49,1.76,2.18c0.61,0.67,1.32,1.37,1.98,1.81L93.53,84.22z"/>
			<path class="st1" d="M72.99,45.96c0.26,0.66,0.61,1.27,0.98,1.87c0.37,0.6,0.78,1.17,1.23,1.71s0.92,1.06,1.44,1.54
				c0.5,0.49,1.05,0.92,1.6,1.36l-0.2,0.08c0.13-0.74,0.46-1.4,0.81-2.04c0.35-0.64,0.74-1.25,1.16-1.84
				c0.83-1.19,1.75-2.3,2.74-3.35c-0.92,1.11-1.79,2.26-2.61,3.45c-0.41,0.59-0.78,1.21-1.11,1.84s-0.63,1.29-0.74,1.98l-0.03,0.21
				l-0.17-0.13c-1.13-0.87-2.14-1.88-3.02-2.99C74.19,48.54,73.44,47.31,72.99,45.96z"/>
			<path class="st1" d="M70.08,50c0.41,1.13,1.03,2.18,1.73,3.14c0.7,0.97,1.5,1.87,2.39,2.67c0.9,0.78,1.85,1.53,2.9,2.11
				c0.5,0.33,1.05,0.56,1.58,0.85c0.54,0.26,1.1,0.46,1.65,0.71l-0.17,0.1c0.2-1.05,0.44-2.1,0.82-3.1
				c0.35-1.01,0.81-1.98,1.34-2.91c1.05-1.86,2.43-3.54,4.1-4.86c-0.82,0.68-1.54,1.47-2.19,2.31c-0.66,0.83-1.26,1.71-1.77,2.64
				c-0.51,0.93-0.96,1.89-1.29,2.9c-0.36,1-0.58,2.03-0.77,3.07l-0.03,0.15l-0.14-0.06c-1.12-0.45-2.22-0.96-3.25-1.6
				c-1.05-0.61-2-1.37-2.9-2.17C72.32,54.3,70.84,52.29,70.08,50z"/>
			<path class="st1" d="M69.25,58.25c0.86,1.05,1.84,2,2.86,2.88c1.02,0.89,2.1,1.71,3.25,2.42s2.36,1.32,3.63,1.77
				c1.27,0.46,2.59,0.74,3.93,0.86l-0.13,0.11c0.16-1.19,0.63-2.29,1.14-3.35c0.53-1.05,1.14-2.06,1.79-3.03
				c1.3-1.95,2.77-3.79,4.34-5.53c-1.5,1.8-2.91,3.67-4.2,5.62c-0.64,0.98-1.23,1.99-1.74,3.03c-0.5,1.05-0.95,2.14-1.08,3.28
				l-0.01,0.12l-0.12-0.01c-2.74-0.23-5.34-1.28-7.64-2.73C72.97,62.24,70.92,60.39,69.25,58.25z"/>
			<path class="st1" d="M74.49,69.44c1.92,0.98,3.87,1.88,5.87,2.68c1,0.39,2.01,0.75,3.05,1.02c1.03,0.27,2.1,0.49,3.14,0.41
				l-0.11,0.11c0.21-1.15,0.8-2.14,1.4-3.08c0.61-0.94,1.29-1.84,2-2.71c1.41-1.74,2.95-3.38,4.56-4.94
				c-1.54,1.62-3.03,3.3-4.43,5.04c-0.69,0.88-1.36,1.78-1.95,2.72c-0.58,0.94-1.14,1.94-1.33,3.01l-0.02,0.1l-0.1,0.01
				c-1.11,0.08-2.18-0.17-3.22-0.45c-1.04-0.29-2.06-0.67-3.06-1.07C78.29,71.46,76.36,70.51,74.49,69.44z"/>
		</g>
		<path class="st2" d="M106.15,100.2c0,0,4.21-12.39,20.19-15.69c11.41-2.36,24.38-2.27,28.29,1.18c3.91,3.46,5.64,10.46,7.46,10.64
			c-2,2-4.37,3.46-10.73,8.1c-6.37,4.64-20.47,5.91-28.57,4.28C114.69,107.07,106.15,100.2,106.15,100.2z"/>
		<path class="st2" d="M93.98,107.8c0.07-0.49-4.97-12.98-17.35-16.37c-12.37-3.4-24.74,2.06-27.41,8.19
			c-2.67,6.13-2.43,9.16-5.7,10.49c6.06,1.33,5.58,5.09,15.4,8.13C68.75,121.26,91.31,125.87,93.98,107.8z"/>
		<path class="st3" d="M93.13,72.38c0,0-12.25-18.92-26.08-25.11s-25.59,2.12-30.6,9.58c4.28,0.09,8.73,3.27,16.47,9.1
			C60.66,71.77,83.58,81.18,93.13,72.38z"/>
		<path class="st4" d="M107.33,62.13c0,0,4.91-16.56,25.29-21.47c20.38-4.91,28.93,1.46,30.93,6.55c-5.64,2-10.19,6.91-20.38,11.64
			C132.98,63.59,113.97,63.86,107.33,62.13z"/>
		<path class="st1" d="M93.98,138.73c0,0,6.11-11.56,3.54-38.53c-2.57-26.97-3.58-49.42-0.34-61.3
			c-0.04,14.68-0.71,16.99-0.23,24.69c0.49,7.7,2.61,30.87,3.94,40.94c1.33,10.07-0.61,28.87-2.67,35.05
			C94.71,141.52,93.98,138.73,93.98,138.73z"/>
		<path class="st4" d="M96.79,48.73c0,0-7.16,0-10.55-6.79c-3.4-6.79,1.21-22.92,9.7-28.63c8.49-5.7,13.83-5.22,13.83-5.22
			s9.46,8.12,7.52,20.31C115.35,40.6,106.74,47.64,96.79,48.73z"/>
		<path class="st4" d="M97.52,89.06c0,0-7.67,1.64-8.67-4.18s14.65-8.19,22.11-7.82c7.46,0.36,8.92,1.31,11.1,10.12
			c-3.64-2.47-5.64-4.11-9.82-1.57C108.05,88.15,105.19,90.91,97.52,89.06z"/>
		<g>
			<path class="st1" d="M95.65,71.88c1.97-2.37,4.15-4.39,6.46-6.32c2.3-1.93,4.73-3.67,7.25-5.28c2.5-1.64,5.14-3.04,7.8-4.4
				c1.36-0.61,2.7-1.27,4.08-1.85c1.39-0.54,2.75-1.16,4.16-1.63c5.62-1.99,11.35-3.58,17.17-4.8c2.92-0.58,5.85-1.06,8.81-1.34
				c2.95-0.25,5.95-0.42,8.89,0.04c-2.95-0.4-5.93-0.17-8.87,0.14c-2.94,0.34-5.86,0.88-8.75,1.51c-5.77,1.34-11.47,3.04-16.99,5.13
				c-1.39,0.49-2.73,1.14-4.09,1.7c-1.35,0.59-2.66,1.27-3.99,1.91c-2.6,1.39-5.18,2.83-7.61,4.5c-2.45,1.64-4.81,3.4-7.02,5.34
				c-2.21,1.92-4.34,4.01-6.13,6.24L95.65,71.88z"/>
			<path class="st1" d="M153.84,41.75c-0.79,0.05-1.51,0.4-2.18,0.78c-0.68,0.38-1.32,0.83-1.91,1.33c-0.6,0.5-1.17,1.02-1.72,1.58
				c-0.55,0.56-1.06,1.14-1.58,1.73l-0.09-0.29c1.42,0.41,2.74,1.07,3.98,1.84c1.24,0.77,2.41,1.65,3.5,2.61
				c-1.17-0.86-2.39-1.65-3.64-2.38c-1.26-0.7-2.55-1.36-3.94-1.73l-0.28-0.07l0.19-0.22c0.52-0.6,1.05-1.18,1.61-1.73
				c0.57-0.55,1.15-1.09,1.78-1.57s1.3-0.91,2-1.27C152.28,42.03,153.05,41.74,153.84,41.75z"/>
			<path class="st1" d="M146.32,40.66c-1.83,1.21-3.53,2.58-5.17,4.03c-0.81,0.73-1.61,1.47-2.37,2.25
				c-0.77,0.77-1.49,1.59-2.21,2.41l-0.09-0.29c0.99,0.28,1.93,0.66,2.86,1.06c0.93,0.4,1.85,0.82,2.75,1.28
				c1.81,0.9,3.58,1.87,5.33,2.9c-1.8-0.91-3.62-1.8-5.44-2.65c-1.83-0.83-3.67-1.7-5.59-2.24l-0.27-0.08l0.18-0.21
				c1.44-1.67,3-3.23,4.67-4.65C142.64,43.06,144.41,41.75,146.32,40.66z"/>
			<path class="st1" d="M135.77,40.97c-1.13,0.51-2.15,1.22-3.1,2.01s-1.8,1.68-2.54,2.66c-1.49,1.95-2.49,4.25-2.99,6.65L127,52.08
				c2.14,0.51,4.14,1.47,5.92,2.72s3.4,2.73,4.78,4.39c-1.48-1.58-3.15-2.97-4.94-4.17c-0.9-0.6-1.84-1.11-2.81-1.57
				c-0.97-0.45-2-0.78-3.03-1.03l-0.17-0.04l0.04-0.17c0.52-2.44,1.56-4.79,3.12-6.75C131.46,43.51,133.47,41.9,135.77,40.97z"/>
			<path class="st1" d="M124,45.09c-0.9,0.77-1.74,1.6-2.54,2.46c-0.81,0.86-1.57,1.76-2.25,2.71c-1.35,1.89-2.53,4.05-2.56,6.38
				l-0.14-0.17c1.62,0.44,3.17,1.14,4.57,2.05c1.4,0.9,2.7,1.97,3.83,3.19c-1.22-1.13-2.56-2.11-3.97-2.96
				c-1.41-0.84-2.92-1.54-4.51-1.93l-0.14-0.03v-0.14c0.01-1.22,0.34-2.4,0.84-3.49c0.49-1.09,1.13-2.11,1.85-3.06
				C120.42,48.2,122.13,46.54,124,45.09z"/>
		</g>
		<g>
			<path class="st1" d="M99.78,105.4c1.67-2.44,3.91-3.86,6.22-5.18c2.33-1.26,4.78-2.26,7.29-3.03c5.01-1.57,10.2-2.35,15.38-2.86
				c5.18-0.5,10.39-0.75,15.59-0.6c2.6,0.07,5.2,0.24,7.78,0.58c2.57,0.35,5.16,0.79,7.59,1.71c-2.45-0.87-5.04-1.25-7.61-1.55
				c-2.58-0.29-5.17-0.4-7.77-0.42c-5.19-0.03-10.37,0.32-15.52,0.92c-5.14,0.62-10.26,1.54-15.13,3.21c-2.44,0.82-4.8,1.85-7,3.12
				c-1.11,0.62-2.14,1.37-3.12,2.14c-0.47,0.41-0.94,0.82-1.36,1.27c-0.41,0.43-0.84,0.95-1.08,1.37L99.78,105.4z"/>
			<path class="st1" d="M154.31,90.37c-0.77-0.11-1.54,0.07-2.26,0.3c-0.73,0.23-1.44,0.53-2.11,0.89
				c-0.68,0.35-1.34,0.74-1.98,1.16c-0.64,0.42-1.26,0.88-1.87,1.34l-0.03-0.3c1.29,0.68,2.44,1.57,3.49,2.56
				c1.05,0.99,2.01,2.06,2.87,3.2c-0.96-1.06-1.99-2.06-3.05-3c-1.08-0.93-2.2-1.81-3.46-2.44l-0.25-0.13l0.23-0.17
				c0.62-0.47,1.26-0.91,1.91-1.33c0.66-0.41,1.33-0.81,2.04-1.14c0.7-0.34,1.44-0.61,2.19-0.81
				C152.76,90.33,153.55,90.2,154.31,90.37z"/>
			<path class="st1" d="M147.24,87.81c-2,0.79-3.93,1.75-5.8,2.8s-3.67,2.23-5.37,3.53l-0.03-0.3c0.9,0.46,1.73,1.02,2.56,1.59
				c0.82,0.57,1.63,1.16,2.41,1.78c1.58,1.22,3.1,2.51,4.58,3.84c-1.56-1.23-3.15-2.44-4.75-3.63c-1.61-1.16-3.21-2.36-4.96-3.27
				l-0.25-0.13l0.22-0.17C139.31,91.28,143.14,89.15,147.24,87.81z"/>
			<path class="st1" d="M136.97,85.98c-1.19,0.26-2.32,0.72-3.38,1.29c-1.07,0.56-2.08,1.23-2.98,2.02
				c-1.83,1.56-3.27,3.56-4.24,5.75l-0.09-0.23c0.97,0.47,1.91,1,2.77,1.65c0.86,0.65,1.68,1.35,2.41,2.13
				c1.48,1.55,2.76,3.29,3.77,5.17c-1.12-1.82-2.46-3.48-3.96-4.98c-0.75-0.75-1.56-1.43-2.41-2.06s-1.77-1.14-2.73-1.59l-0.16-0.08
				l0.07-0.16c1-2.24,2.48-4.27,4.38-5.83C132.32,87.52,134.58,86.4,136.97,85.98z"/>
			<path class="st1" d="M124.76,87.54c-1.02,0.55-2,1.17-2.94,1.83c-0.95,0.65-1.86,1.36-2.72,2.13c-1.68,1.53-3.26,3.36-3.75,5.58
				l-0.1-0.19c1.48,0.74,2.83,1.72,4.01,2.87c1.18,1.14,2.22,2.43,3.08,3.82c-0.96-1.32-2.07-2.53-3.26-3.63
				c-1.2-1.09-2.52-2.05-3.98-2.75l-0.13-0.06l0.03-0.13c0.25-1.17,0.82-2.24,1.51-3.18c0.7-0.94,1.52-1.79,2.4-2.54
				C120.69,89.78,122.67,88.54,124.76,87.54z"/>
		</g>
		<g>
			<path class="st1" d="M100.25,112.31c-0.24-0.34-0.67-0.75-1.08-1.08c-0.41-0.35-0.87-0.66-1.32-0.96
				c-0.93-0.59-1.92-1.11-2.95-1.54c-2.06-0.88-4.23-1.51-6.44-2c-4.43-0.94-8.98-1.3-13.53-1.39c-4.56-0.08-9.12,0.03-13.66,0.47
				c-2.27,0.22-4.53,0.51-6.77,0.94c-2.23,0.44-4.47,0.96-6.57,1.85c2.09-0.93,4.32-1.49,6.55-1.98c2.23-0.48,4.5-0.81,6.77-1.08
				c4.54-0.52,9.12-0.73,13.69-0.74c4.57-0.01,9.17,0.23,13.7,1.07c2.26,0.45,4.5,1.03,6.67,1.89c1.08,0.42,2.14,0.94,3.15,1.54
				c0.5,0.31,1,0.63,1.47,1.01c0.48,0.39,0.91,0.74,1.35,1.32L100.25,112.31z"/>
			<path class="st1" d="M50.32,102.95c1.69-0.09,3.39,0.21,5.02,0.68c1.63,0.49,3.19,1.19,4.66,2.06l0.22,0.13l-0.23,0.13
				c-0.72,0.41-1.34,1.03-1.91,1.66s-1.1,1.31-1.61,2c-1.01,1.39-1.95,2.84-2.82,4.32c0.78-1.54,1.65-3.03,2.63-4.46
				c0.48-0.72,1.02-1.4,1.59-2.05c0.58-0.65,1.19-1.28,1.97-1.73v0.26c-0.73-0.42-1.46-0.83-2.23-1.17
				c-0.76-0.36-1.55-0.64-2.35-0.92c-0.8-0.26-1.61-0.47-2.44-0.63C52,103.07,51.16,102.95,50.32,102.95z"/>
			<path class="st1" d="M53.65,98.03c2.87-0.15,5.75,0.6,8.35,1.83c1.29,0.64,2.55,1.35,3.68,2.25c1.16,0.86,2.21,1.85,3.2,2.9
				l0.13,0.13l-0.16,0.1c-1.09,0.64-2.16,1.32-3.13,2.13c-0.99,0.79-1.89,1.68-2.73,2.63c-0.84,0.95-1.58,1.98-2.24,3.06
				c-0.67,1.08-1.26,2.21-1.7,3.4c0.8-2.42,2.14-4.65,3.79-6.6c0.83-0.97,1.73-1.89,2.72-2.7c0.97-0.84,2.05-1.54,3.14-2.2
				l-0.04,0.23c-0.51-0.5-0.98-1.03-1.51-1.51c-0.54-0.46-1.05-0.97-1.63-1.38c-1.11-0.9-2.35-1.62-3.62-2.27
				c-1.28-0.64-2.63-1.12-4.01-1.46C56.51,98.23,55.09,98,53.65,98.03z"/>
			<path class="st1" d="M62.63,93.61c3.08,0.91,6.02,2.35,8.63,4.24c2.6,1.88,4.91,4.3,6.33,7.23l0.06,0.13l-0.13,0.07
				c-1.22,0.63-2.27,1.58-3.24,2.57c-0.97,1-1.85,2.08-2.69,3.2c-1.66,2.24-3.19,4.59-4.6,7.01c1.31-2.48,2.77-4.87,4.44-7.13
				c0.83-1.13,1.71-2.23,2.67-3.25c0.97-1.01,2.02-1.99,3.28-2.66l-0.07,0.2c-0.71-1.43-1.59-2.77-2.65-3.96
				c-1.05-1.2-2.25-2.27-3.54-3.23c-1.29-0.95-2.66-1.79-4.09-2.52C65.63,94.76,64.16,94.1,62.63,93.61z"/>
			<path class="st1" d="M77.45,94.58c1.98,1.58,3.88,3.29,5.63,5.13c0.88,0.92,1.72,1.87,2.5,2.89c0.76,1.02,1.5,2.09,1.87,3.35
				l0.03,0.11l-0.11,0.06c-1.12,0.65-2.01,1.68-2.83,2.72c-0.82,1.05-1.55,2.16-2.25,3.29c-1.38,2.28-2.66,4.62-3.85,7.01
				c1.09-2.44,2.3-4.82,3.68-7.12c0.69-1.15,1.41-2.27,2.23-3.34c0.82-1.06,1.69-2.11,2.88-2.83l-0.07,0.17
				c-0.36-1.18-1.06-2.26-1.8-3.28c-0.75-1.02-1.58-1.98-2.44-2.9C81.2,98.01,79.36,96.26,77.45,94.58z"/>
		</g>
		<g>
			<path class="st1" d="M95.97,75.53C88.22,69.49,79.61,64.5,70.39,61c-9.2-3.5-19.06-5.49-28.97-5.25
				c9.9-0.48,19.86,1.26,29.23,4.55c9.38,3.3,18.21,8.12,26.23,14.05L95.97,75.53z"/>
			<path class="st1" d="M47.76,50.92c0.8-0.01,1.57,0.32,2.28,0.68c0.7,0.39,1.36,0.85,1.98,1.36c1.23,1.03,2.31,2.23,3.31,3.47
				l0.17,0.21l-0.27,0.08c-1.38,0.4-2.66,1.1-3.9,1.85c-1.23,0.77-2.43,1.6-3.57,2.51c1.06-1.01,2.2-1.93,3.42-2.75
				s2.53-1.52,3.95-1.97l-0.09,0.29c-0.5-0.61-1-1.23-1.53-1.81c-0.53-0.58-1.1-1.14-1.68-1.67c-0.58-0.53-1.21-1.01-1.88-1.42
				C49.28,51.35,48.55,50.97,47.76,50.92z"/>
			<path class="st1" d="M55.18,49.76c1.9,1.18,3.66,2.57,5.32,4.08c1.65,1.51,3.18,3.16,4.58,4.91l0.17,0.21l-0.26,0.08
				c-1.91,0.58-3.72,1.51-5.52,2.39c-1.8,0.91-3.59,1.84-5.36,2.81c1.71-1.08,3.45-2.11,5.24-3.06c0.89-0.49,1.8-0.93,2.71-1.36
				c0.92-0.42,1.85-0.83,2.84-1.13l-0.09,0.29c-0.7-0.86-1.4-1.72-2.16-2.54c-0.74-0.83-1.54-1.61-2.33-2.38
				c-0.8-0.78-1.63-1.52-2.48-2.23C56.97,51.1,56.1,50.4,55.18,49.76z"/>
			<path class="st1" d="M65.59,50.08c1.17,0.51,2.25,1.23,3.24,2.05c0.97,0.84,1.87,1.77,2.62,2.82c0.74,1.05,1.4,2.17,1.88,3.37
				c0.52,1.18,0.86,2.43,1.14,3.69l0.04,0.17l-0.18,0.05c-1.04,0.27-2.06,0.63-3.03,1.11c-0.96,0.49-1.9,1.05-2.78,1.68
				c-1.76,1.27-3.39,2.74-4.83,4.39c1.33-1.73,2.91-3.29,4.66-4.62s3.74-2.38,5.89-2.93l-0.14,0.21c-0.28-1.23-0.59-2.46-1.09-3.63
				c-0.45-1.19-1.11-2.28-1.8-3.33c-0.71-1.05-1.56-2-2.5-2.85C67.77,51.41,66.73,50.64,65.59,50.08z"/>
			<path class="st1" d="M77.2,54.46c1.88,1.57,3.59,3.37,5.01,5.38c0.71,1.01,1.33,2.09,1.8,3.23c0.47,1.14,0.79,2.37,0.8,3.63v0.14
				l-0.14,0.04c-1.59,0.43-3.09,1.18-4.48,2.07c-1.39,0.91-2.7,1.94-3.89,3.12c1.09-1.27,2.35-2.39,3.74-3.35
				c1.38-0.97,2.91-1.73,4.54-2.2l-0.14,0.18c-0.02-2.42-1.15-4.69-2.48-6.7c-0.67-1.02-1.42-1.98-2.23-2.9
				C78.94,56.18,78.1,55.28,77.2,54.46z"/>
		</g>
		<g>
			<path class="st1" d="M95.74,53.66c-0.24-1.08-0.22-2.01-0.2-2.99c0.03-0.97,0.13-1.93,0.26-2.88c0.26-1.91,0.67-3.78,1.14-5.63
				c0.97-3.7,2.24-7.3,3.63-10.84c1.39-3.54,2.95-7.02,4.75-10.38c0.9-1.68,1.86-3.32,2.92-4.9c1.06-1.57,2.19-3.13,3.56-4.44
				c-1.35,1.34-2.44,2.91-3.47,4.5c-1.03,1.6-1.95,3.26-2.81,4.95c-1.72,3.38-3.21,6.88-4.53,10.43c-1.31,3.56-2.47,7.17-3.34,10.85
				c-0.42,1.84-0.77,3.7-0.98,5.56c-0.1,0.93-0.18,1.87-0.18,2.8c0,0.91,0.04,1.9,0.23,2.67L95.74,53.66z"/>
			<path class="st1" d="M106.62,11.63c-0.26,0.66-0.42,1.35-0.54,2.04c-0.13,0.69-0.22,1.39-0.26,2.09
				c-0.03,0.7-0.04,1.41,0.01,2.11c0.04,0.7,0.15,1.4,0.25,2.09l-0.2-0.08c0.6-0.45,1.29-0.72,1.98-0.95s1.39-0.41,2.1-0.56
				c1.41-0.31,2.85-0.5,4.29-0.6c-1.43,0.2-2.85,0.45-4.25,0.76c-0.7,0.16-1.39,0.36-2.07,0.6c-0.67,0.24-1.34,0.52-1.89,0.95
				l-0.17,0.13L105.84,20c-0.24-1.4-0.29-2.83-0.19-4.25C105.76,14.33,106.03,12.92,106.62,11.63z"/>
			<path class="st1" d="M101.74,12.61c-0.47,1.11-0.72,2.3-0.86,3.48c-0.15,1.19-0.17,2.39-0.06,3.58c0.13,1.19,0.32,2.38,0.69,3.52
				c0.14,0.58,0.39,1.13,0.59,1.69c0.22,0.56,0.5,1.09,0.73,1.64l-0.19-0.04c0.86-0.63,1.75-1.24,2.71-1.72
				c0.94-0.51,1.94-0.9,2.96-1.23c2.03-0.65,4.19-0.95,6.31-0.79c-1.06-0.05-2.13,0.04-3.17,0.21c-1.05,0.16-2.09,0.4-3.09,0.74
				c-1,0.33-1.99,0.74-2.91,1.25c-0.94,0.49-1.81,1.1-2.65,1.74l-0.12,0.09l-0.06-0.14c-0.52-1.09-0.98-2.22-1.3-3.38
				c-0.36-1.16-0.54-2.36-0.66-3.56C100.47,17.29,100.74,14.81,101.74,12.61z"/>
			<path class="st1" d="M95.53,18.11c-0.08,1.35-0.01,2.71,0.14,4.06c0.14,1.34,0.38,2.68,0.75,3.98c0.36,1.3,0.84,2.57,1.47,3.76
				c0.62,1.2,1.4,2.3,2.3,3.3l-0.17-0.01c0.92-0.77,2.02-1.26,3.11-1.68c1.1-0.41,2.23-0.74,3.37-1.01
				c2.28-0.55,4.61-0.91,6.94-1.11c-2.32,0.3-4.63,0.72-6.9,1.28c-1.13,0.29-2.25,0.62-3.34,1.04c-1.08,0.43-2.15,0.93-3.02,1.68
				l-0.09,0.08l-0.08-0.09c-1.86-2.02-3.06-4.56-3.75-7.19C95.55,23.56,95.31,20.82,95.53,18.11z"/>
			<path class="st1" d="M91.79,29.88c0.74,2.02,1.57,4.01,2.49,5.95c0.47,0.97,0.97,1.92,1.54,2.82s1.21,1.78,2.03,2.44h-0.16
				c0.93-0.7,2.04-1.02,3.12-1.32c1.09-0.28,2.2-0.47,3.31-0.64c2.22-0.32,4.46-0.48,6.7-0.53c-2.23,0.14-4.46,0.37-6.67,0.7
				c-1.1,0.17-2.2,0.38-3.28,0.67c-1.06,0.3-2.15,0.65-3.01,1.31l-0.08,0.06l-0.08-0.06c-0.87-0.69-1.49-1.61-2.06-2.52
				c-0.57-0.92-1.06-1.89-1.52-2.86C93.2,33.95,92.43,31.93,91.79,29.88z"/>
		</g>
		<g>
			<path class="st1" d="M96.84,78.24c0.67-0.07,1.13-0.07,1.7-0.08c0.55,0,1.09-0.01,1.64,0c1.09,0.02,2.18,0.08,3.27,0.17
				c2.17,0.18,4.34,0.5,6.45,1.04c2.1,0.55,4.2,1.23,6.09,2.33c1.89,1.08,3.6,2.49,4.85,4.27c-1.3-1.75-3.04-3.1-4.94-4.11
				c-1.9-1.04-3.99-1.65-6.09-2.13c-2.1-0.48-4.25-0.74-6.41-0.85c-1.08-0.06-2.16-0.09-3.23-0.08c-0.54,0-1.08,0.02-1.61,0.04
				c-0.51,0.02-1.13,0.06-1.54,0.11L96.84,78.24z"/>
			<path class="st1" d="M108.3,85.06c0.12-1.34,0.33-2.69,0.83-3.97c0.13-0.32,0.27-0.64,0.48-0.93c0.19-0.29,0.47-0.58,0.83-0.7
				c0.72-0.21,1.4-0.13,2.08-0.07c1.35,0.19,2.68,0.51,3.95,0.97c1.25,0.48,2.59,0.97,3.5,2c-0.47-0.49-1.08-0.79-1.7-1.05
				c-0.61-0.27-1.24-0.5-1.89-0.69c-1.28-0.39-2.59-0.72-3.91-0.87c-0.65-0.07-1.34-0.15-1.93,0.02c-0.57,0.18-0.88,0.85-1.17,1.42
				C108.85,82.41,108.55,83.73,108.3,85.06z"/>
			<path class="st1" d="M100.17,86.51c0.02-1.71,0.24-3.44,0.83-5.07c0.29-0.81,0.7-1.61,1.31-2.26c0.61-0.67,1.5-1.02,2.34-1.19
				c1.72-0.31,3.45-0.3,5.16-0.19s3.41,0.34,5.1,0.66c-1.7-0.19-3.41-0.32-5.11-0.38c-1.7-0.05-3.42-0.06-5.07,0.26
				c-0.83,0.16-1.61,0.46-2.18,1.06c-0.58,0.59-0.97,1.35-1.29,2.12C100.64,83.11,100.33,84.81,100.17,86.51z"/>
		</g>
	</g>
	<g>
		<polygon class="st5" points="61.56,138.25 70.63,200 125.29,200 133.56,138.25 		"/>
		<path class="st6" d="M132.18,148.55l1.38-10.3h-72L70.63,200h12.03C81.52,170.39,97.83,140.72,132.18,148.55z"/>
		<path class="st5" d="M132.23,143H62.9c-3.85,0-7-3.15-7-7l0,0c0-3.85,3.15-7,7-7h69.33c3.85,0,7,3.15,7,7l0,0
			C139.23,139.85,136.08,143,132.23,143z"/>
	</g>
	<g>
		<path class="st2" d="M105.14,121.4c0,0,5.58-10.74,15.53-7.59c9.95,3.15,19.41,12.86,18.8,20.01c-0.61,7.16,0.85,10.92,0.85,10.92
			s-1.94-1.58-7.4-0.73c-5.46,0.85-15.53-0.36-22.44-7.52S102.94,124.53,105.14,121.4z"/>
		<g>
			<path class="st1" d="M99.25,117.1c2.12-0.49,4.02-0.12,5.91,0.33c1.88,0.48,3.68,1.19,5.41,2c3.46,1.66,6.65,3.78,9.71,6.05
				c3.05,2.27,6,4.68,8.77,7.29c1.38,1.31,2.72,2.66,3.97,4.1c1.24,1.44,2.44,2.93,3.35,4.6c-0.94-1.65-2.17-3.11-3.44-4.52
				s-2.64-2.73-4.04-4.01c-2.81-2.55-5.8-4.89-8.88-7.1c-3.09-2.19-6.31-4.21-9.75-5.75c-1.72-0.76-3.49-1.4-5.31-1.81
				c-0.9-0.22-1.83-0.34-2.74-0.42c-0.89-0.04-1.88-0.02-2.62,0.2L99.25,117.1z"/>
			<path class="st1" d="M137.7,136.47c-0.57-0.42-1.19-0.76-1.83-1.06c-0.63-0.31-1.28-0.58-1.95-0.8
				c-0.67-0.21-1.34-0.41-2.04-0.54c-0.69-0.15-1.39-0.22-2.08-0.3l0.13-0.17c0.28,0.7,0.36,1.43,0.4,2.16
				c0.04,0.73,0.03,1.45-0.01,2.17c-0.07,1.45-0.26,2.88-0.54,4.3c0.18-1.43,0.31-2.87,0.37-4.31c0.03-0.72,0.02-1.44-0.03-2.15
				c-0.06-0.71-0.15-1.43-0.42-2.07l-0.08-0.19l0.21,0.02c1.42,0.14,2.81,0.46,4.15,0.93C135.32,134.93,136.61,135.56,137.7,136.47z
				"/>
			<path class="st1" d="M138.02,131.5c-0.95-0.74-2.03-1.3-3.14-1.74c-1.11-0.45-2.26-0.79-3.44-1c-1.18-0.18-2.38-0.31-3.57-0.25
				c-0.6-0.01-1.19,0.08-1.79,0.12c-0.59,0.07-1.18,0.19-1.77,0.27l0.09-0.17c0.39,1,0.74,2.01,0.96,3.06
				c0.24,1.04,0.36,2.11,0.41,3.18c0.09,2.13-0.18,4.29-0.89,6.3c0.33-1.01,0.52-2.06,0.63-3.12c0.12-1.05,0.16-2.12,0.1-3.17
				c-0.06-1.06-0.19-2.11-0.45-3.14c-0.22-1.04-0.59-2.03-0.98-3.01l-0.06-0.15l0.15-0.03c1.19-0.21,2.4-0.37,3.61-0.37
				c1.21-0.04,2.42,0.1,3.61,0.3C133.84,129.05,136.16,129.96,138.02,131.5z"/>
			<path class="st1" d="M134.34,124.07c-1.29-0.43-2.62-0.72-3.95-0.92c-1.34-0.21-2.69-0.33-4.04-0.32s-2.7,0.14-4.02,0.43
				c-1.32,0.28-2.59,0.75-3.79,1.36l0.06-0.16c0.5,1.09,0.68,2.28,0.81,3.44c0.11,1.17,0.13,2.35,0.09,3.52
				c-0.07,2.35-0.33,4.68-0.74,6.99c0.32-2.32,0.52-4.66,0.57-6.99c0.02-1.17-0.01-2.34-0.13-3.5c-0.14-1.15-0.34-2.32-0.83-3.36
				l-0.05-0.11l0.11-0.06c2.44-1.26,5.2-1.76,7.92-1.74C129.07,122.66,131.79,123.15,134.34,124.07z"/>
			<path class="st1" d="M123.96,117.38c-2.14,0.19-4.28,0.46-6.39,0.85c-1.05,0.2-2.1,0.44-3.13,0.75c-1.02,0.32-2.03,0.7-2.88,1.32
				l0.04-0.15c0.43,1.08,0.46,2.24,0.45,3.35c-0.02,1.12-0.12,2.24-0.25,3.36c-0.27,2.23-0.7,4.43-1.24,6.6
				c0.45-2.19,0.81-4.4,1.07-6.62c0.12-1.11,0.21-2.23,0.21-3.34c-0.01-1.1-0.06-2.25-0.47-3.25l-0.04-0.09l0.08-0.06
				c0.9-0.66,1.94-1.01,2.97-1.33c1.04-0.31,2.1-0.53,3.16-0.72C119.66,117.68,121.81,117.46,123.96,117.38z"/>
		</g>
	</g>
</g>
</svg>
