<?xml version="1.0" encoding="utf-8"?>
<!-- Generator: Adobe Illustrator 27.2.0, SVG Export Plug-In . SVG Version: 6.00 Build 0)  -->
<svg version="1.1" id="Layer_1" xmlns="http://www.w3.org/2000/svg" xmlns:xlink="http://www.w3.org/1999/xlink" x="0px" y="0px"
	 viewBox="0 0 200 200" style="enable-background:new 0 0 200 200;" xml:space="preserve">
<style type="text/css">
	.st0{fill:#347A34;}
	.st1{fill:#2A6B2A;}
	.st2{fill:#5CAA2E;}
	.st3{fill:#3AA33A;}
	.st4{fill:#388C38;}
	.st5{fill:#207A20;}
	.st6{fill:#D18133;}
	.st7{fill:#C46C23;}
</style>
<g id="_x31_">
	<g>
		<g>
			<path class="st0" d="M86.68,60.34c0,0,11.97,44.82,3.3,74.4c3.57,0.77,5.54,0,5.54,0S100.65,77.97,86.68,60.34z"/>
			<path class="st0" d="M108.73,83.5c0,0-11,33.5-10.75,50.25c-2.25,6.25-5.79,0-5.79,0S95.52,100,108.73,83.5z"/>
			<path class="st0" d="M108.73,96c0,0-6.73,27.9-5.67,41.57c-1.41,5.21-4.45,0.28-4.45,0.28S99.43,110.12,108.73,96z"/>
			<path class="st0" d="M110.68,132.12c0,0,11.8-13.88,20.05-16.38c2-2.12,0-2,0-2s-18.25,9.38-23.12,19
				C108.61,135.25,110.68,132.12,110.68,132.12z"/>
			<path class="st0" d="M111.65,116.4c0,0-6.78,7.17-7.44,20.83c-2.98,0.64-3.45-1.43-3.45-1.43s6.09-22.77,15.59-23.6
				C113.36,114.25,111.65,116.4,111.65,116.4z"/>
			<g>
				<path class="st0" d="M93.56,128.33c0,0-0.99-13.6-12.58-23.27c-5.71-4.77-4.42-8.41-9.12-9.69c-4.7-1.28-11.55-5.27-13.4-7.13
					c-1.85-1.85-29.68-8.36-36.81-5.79c7.98,2,15.68,13.48,19.67,13.77c3.99,0.29,9.13,4.89,14.83,8.88
					c5.7,3.99,10.15,1.53,13.85,3.39C73.71,110.33,87.25,117.61,93.56,128.33z"/>
				<g>
					<path class="st1" d="M86.5,117.45c-1.73-2.24-3.58-4.4-5.45-6.51c-0.95-1.04-1.92-2.07-2.97-3c-1.04-0.92-2.19-1.75-3.35-2.53
						c-1.17-0.77-2.39-1.45-3.66-2.08c-1.26-0.63-2.56-1.24-3.78-2c-1.23-0.74-2.37-1.67-3.43-2.57c-1.09-0.85-2.3-1.56-3.54-2.22
						c-4.99-2.61-10.28-4.67-15.53-6.8l-15.81-6.25c5.33,1.92,10.69,3.77,15.99,5.78c5.3,2,10.61,4.03,15.68,6.65
						c1.26,0.67,2.51,1.38,3.66,2.27c1.11,0.92,2.18,1.77,3.37,2.52c1.17,0.75,2.44,1.36,3.71,2.01s2.52,1.35,3.71,2.15
						c1.18,0.81,2.34,1.64,3.38,2.64c1.04,0.99,1.98,2.06,2.9,3.14C83.23,112.81,84.88,115.12,86.5,117.45z"/>
					<path class="st1" d="M73.23,97.92c1.53,1.5,2.9,3.17,4.06,4.99c0.59,0.9,1.09,1.86,1.51,2.87c0.41,1,0.72,2.06,0.8,3.17
						l0.02,0.2l-0.2,0.03c-1.08,0.16-2.17,0.31-3.26,0.41c-1.09,0.09-2.19,0.16-3.28,0.13c-1.1-0.02-2.19-0.12-3.27-0.32
						c-1.06-0.23-2.16-0.52-3.03-1.19c0.91,0.6,2.01,0.82,3.07,0.98c1.07,0.15,2.15,0.21,3.24,0.19c1.08-0.02,2.16-0.08,3.24-0.19
						c1.08-0.11,2.15-0.27,3.22-0.45l-0.18,0.23c-0.14-2.09-1.09-4.06-2.16-5.88c-0.54-0.92-1.14-1.8-1.78-2.66
						C74.61,99.56,73.94,98.72,73.23,97.92z"/>
					<path class="st1" d="M66.26,94.37c1.26,1.2,2.3,2.62,3.23,4.1c0.92,1.48,1.67,3.07,2.31,4.7l0.09,0.24l-0.26,0.05
						c-2.08,0.4-4.22,0.57-6.34,0.42c-2.11-0.17-4.24-0.59-6.12-1.57c1.95,0.8,4.05,1.13,6.14,1.22c1.04,0.04,2.09,0.03,3.13-0.06
						s2.08-0.25,3.1-0.43l-0.16,0.28c-0.59-1.62-1.35-3.18-2.18-4.69C68.35,97.14,67.39,95.68,66.26,94.37z"/>
					<path class="st1" d="M53.18,86.52c1.46,1.27,2.8,2.69,4.02,4.21c1.21,1.52,2.27,3.19,2.94,5.06l0.09,0.24l-0.26,0.03
						c-1.91,0.25-3.82,0.42-5.74,0.52c-1.92,0.09-3.84,0.12-5.76,0.03c1.92-0.1,3.83-0.22,5.74-0.38c1.91-0.15,3.81-0.35,5.71-0.6
						l-0.17,0.28c-0.61-1.8-1.67-3.44-2.79-5C55.79,89.38,54.52,87.91,53.18,86.52z"/>
					<path class="st1" d="M41.59,85c1.49,0.71,2.94,1.53,4.29,2.49c0.68,0.48,1.34,0.99,1.94,1.58c0.59,0.59,1.17,1.24,1.45,2.1
						l0.06,0.17l-0.16,0.08c-0.84,0.42-1.73,0.6-2.61,0.75s-1.77,0.26-2.65,0.34c-1.77,0.14-3.55,0.21-5.32,0.16
						c1.77-0.15,3.53-0.3,5.29-0.52c0.88-0.1,1.75-0.22,2.61-0.38c0.86-0.17,1.73-0.37,2.49-0.72l-0.1,0.24
						c-0.23-0.73-0.76-1.37-1.32-1.95c-0.57-0.57-1.2-1.1-1.85-1.61C44.4,86.74,43.01,85.84,41.59,85z"/>
				</g>
				<path class="st2" d="M90.1,64.1c0,0-4.85-18.53-17.39-21.38s-16.54-7.7-24.52-10.26c-7.98-2.57-15.68,3.71-15.68,3.71
					s9.55,0.14,18.75,6.77S77.63,61.75,90.1,64.1z"/>
				<path class="st0" d="M90.1,64.1c0,0-5.91-12.05-18.45-14.9c-12.55-2.86-15.44-9.89-23.42-12.45
					c-7.98-2.57-15.72-0.59-15.72-0.59s9.55,0.14,18.75,6.77S77.63,61.75,90.1,64.1z"/>
				<path class="st0" d="M126.88,117.13c0,0,3.99-8.13,11.12-12.83s12.4-3.64,16.54-5.88c4.13-2.25,14.54-4.53,19.39-2.96
					s13.07,1.71,16.37,11.26c-3.26-2-8.53,0.57-14.23,2.57c-5.7,2-12.42-2-17.47,0c-5.05,2-9.61,6.84-15.03,7.13
					C138.14,116.7,126.88,117.13,126.88,117.13z"/>
				<path class="st3" d="M110.27,117.13c0,0-0.64-10.91,8.55-16.25c9.19-5.35,17.96-9.19,21.6-15.4c3.64-6.2,15.61-9.19,27.16-4.06
					c-8.55-0.43-19.46,7.7-31,17.96C125.02,109.64,110.27,117.13,110.27,117.13z"/>
				<path class="st0" d="M110.27,117.13c0,0-0.64-10.91,8.55-16.25c9.19-5.35,18.19-4.01,21.83-10.21
					c3.63-6.2,15.38-14.38,26.93-9.24c-8.55-0.43-19.46,7.7-31,17.96C125.02,109.64,110.27,117.13,110.27,117.13z"/>
				<path class="st3" d="M102.41,117.13c0,0,1.46-25.39,12.28-30.35s10.07-15.11,21.67-20.56c11.6-5.44,20.76-14.35,35.51-12.8
					c-13.19,4.38-16.83,10.54-22.35,17.89c-5.52,7.35-11.99,10.84-14.36,13.71c-2.37,2.87-9.63,12.47-14.12,13.98
					C116.56,100.52,104.97,110.87,102.41,117.13z"/>
				<path class="st0" d="M102.41,117.13c0,0,4.71-21.92,15.53-26.88c10.82-4.96,9.38-14.93,20.98-20.38
					c11.6-5.44,18.21-18,32.95-16.45c-13.19,4.38-16.83,10.54-22.35,17.89c-5.52,7.35-11.99,10.84-14.36,13.71
					S125.53,97.49,121.04,99C116.56,100.52,104.97,110.87,102.41,117.13z"/>
				<path class="st3" d="M86.68,118.26c0,0-10.48-13.66-22.81-12.22s-9.69,9.29-21.67,6.06c-11.97-3.23-30.79,8.46-32.5,17.58
					c10.55-8.27,17.96-9.69,33.93-7.41C59.59,124.54,77.27,116.53,86.68,118.26z"/>
				<path class="st0" d="M86.68,118.26c0,0-9.99-7.5-22.32-6.06s-9.9,6.53-21.87,3.3s-31.07,5.05-32.78,14.18
					c10.55-8.27,17.96-9.69,33.93-7.41C59.59,124.54,77.27,116.53,86.68,118.26z"/>
				<path class="st0" d="M89.98,134.75c0,0,2.62-13-11.12-20.38c6.12-0.25,13.17,7.38,15.21,18.5
					C94.86,138,89.98,134.75,89.98,134.75z"/>
				<path class="st3" d="M86.68,87.48c0,0-9.69-12.26-5.99-30.51c3.71-18.25,4.85-17.68,9.69-25.94
					c4.85-8.27,8.27-18.53,18.25-19.39s8.55-6.84,18.25-2.28c-5.13-0.29-15.11,4.49-15.11,11.76s-2.14,12.4-4.92,15.61
					s-1.71,10.69-4.7,15.82s-7.91,19.46-11.12,23.63s-2.35,12.72-2.14,13.36S86.68,87.48,86.68,87.48z"/>
				<path class="st2" d="M108.92,82.34c0,0-5.42-22.23-1.14-35.92c4.28-13.68,10.83-15.11,17.39-22.52
					c6.56-7.41,11.97-4.28,11.97-4.28s-3.71,5.13-4.28,19.39s-6.65,24.7-15.68,32.22C108.15,78.74,108.92,82.34,108.92,82.34z"/>
				<path class="st3" d="M85.25,92.91c0,0-6.84-23.39-20.53-28.81c-13.68-5.42-14.54-3.14-24.23-3.71s-21.38,3.99-26.8,8.27
					c14.26-4.28,29.08,2.53,38.49,7.97C61.59,82.06,85.25,92.91,85.25,92.91z"/>
				<path class="st0" d="M85.25,92.91c0,0-10.26-15.5-23.95-20.91c-13.68-5.42-12.5-9.8-22.2-10.38s-20,2.76-25.42,7.04
					c14.26-4.28,29.08,2.53,38.49,7.97C61.59,82.06,85.25,92.91,85.25,92.91z"/>
			</g>
		</g>
		<g>
			<path class="st0" d="M106.8,83.13c2.1-5.39,3.96-10.98,4.99-16.65c0.13-0.71,0.23-1.42,0.31-2.13c0.11-0.72,0.17-1.49,0.32-2.23
				c0.27-1.49,0.71-2.96,1.35-4.34c1.29-2.78,3.19-5.02,4.11-7.73c0.5-1.32,0.75-2.77,1.16-4.2c0.38-1.43,0.83-2.83,1.3-4.23
				c0.95-2.79,2.04-5.53,3.3-8.19c1.27-2.65,2.72-5.23,4.49-7.59c1.77-2.33,3.9-4.51,6.6-5.71c-2.66,1.28-4.71,3.5-6.4,5.86
				c-1.69,2.39-3.05,4.99-4.24,7.65c-1.18,2.67-2.19,5.42-3.05,8.21c-0.42,1.4-0.83,2.8-1.16,4.22c-0.18,0.71-0.32,1.41-0.48,2.13
				l-0.26,1.1l-0.32,1.08c-0.9,2.92-2.81,5.32-3.91,7.91c-0.56,1.3-0.93,2.67-1.14,4.07c-0.12,0.7-0.16,1.4-0.25,2.14
				c-0.07,0.75-0.15,1.49-0.26,2.23c-0.42,2.95-1.12,5.84-1.9,8.69c-0.8,2.85-1.69,5.66-2.71,8.46L106.8,83.13z"/>
			<path class="st0" d="M107.73,53.25c0.7,2.39,1.43,4.78,2.18,7.15c0.39,1.18,0.77,2.36,1.2,3.53c0.43,1.16,0.89,2.33,1.5,3.36
				l-0.36-0.07c1.02-0.73,2.05-1.45,3.09-2.15c1.04-0.7,2.08-1.4,3.16-2.04c2.14-1.31,4.34-2.54,6.65-3.52
				c-1.12,0.56-2.2,1.2-3.27,1.85c-1.07,0.64-2.13,1.31-3.17,2c-2.09,1.37-4.15,2.78-6.16,4.27l-0.22,0.17l-0.14-0.24
				c-0.64-1.12-1.08-2.29-1.5-3.47c-0.41-1.18-0.8-2.37-1.14-3.57C108.85,58.11,108.25,55.68,107.73,53.25z"/>
			<path class="st0" d="M112.73,41.83c0.19,2.49,0.52,4.96,0.92,7.41c0.42,2.45,0.92,4.89,1.66,7.25l-0.34-0.15
				c2.54-1.25,5.03-2.59,7.42-4.1c1.2-0.75,2.38-1.53,3.5-2.39c1.11-0.86,2.26-1.73,3.02-2.94c-0.69,1.26-1.79,2.22-2.86,3.14
				c-1.1,0.9-2.26,1.73-3.44,2.52c-1.18,0.79-2.41,1.52-3.64,2.22c-1.24,0.69-2.49,1.38-3.78,1.98l-0.26,0.12l-0.08-0.27
				c-0.71-2.41-1.23-4.86-1.55-7.34C112.95,46.82,112.76,44.32,112.73,41.83z"/>
			<path class="st0" d="M118.57,32.91c-0.12,2.15-0.09,4.31,0.04,6.45c0.17,2.14,0.44,4.28,1.14,6.29l-0.35-0.13
				c1.03-0.61,2.05-1.23,3.01-1.94c0.97-0.71,1.9-1.45,2.81-2.24c0.91-0.78,1.8-1.59,2.66-2.43c0.87-0.83,1.72-1.69,2.52-2.59
				c-1.47,1.91-3.13,3.68-4.91,5.32c-0.89,0.82-1.84,1.58-2.8,2.31c-0.97,0.72-1.99,1.4-3.05,1.99l-0.26,0.15l-0.09-0.28
				c-0.69-2.09-0.97-4.26-1.05-6.43C118.17,37.22,118.28,35.05,118.57,32.91z"/>
			<path class="st0" d="M123.9,26.41c-0.24,1.17-0.36,2.35-0.36,3.53c0.02,1.17,0.16,2.35,0.58,3.42l-0.26-0.15
				c0.72-0.14,1.42-0.4,2.11-0.69s1.36-0.64,2.03-1.01c1.34-0.71,2.63-1.52,3.92-2.33c-1.16,1-2.41,1.89-3.72,2.69
				c-0.66,0.39-1.34,0.76-2.04,1.08s-1.43,0.61-2.22,0.73l-0.2,0.03l-0.06-0.18c-0.42-1.16-0.57-2.4-0.48-3.6
				C123.26,28.73,123.49,27.54,123.9,26.41z"/>
		</g>
		<g>
			<path class="st0" d="M88.22,90.29c-0.29-0.29-0.4-0.47-0.57-0.7c-0.15-0.22-0.27-0.44-0.4-0.66c-0.22-0.44-0.44-0.89-0.6-1.35
				c-0.35-0.9-0.57-1.83-0.75-2.75c-0.33-1.84-0.47-3.69-0.45-5.52c0.02-3.67,0.53-7.27,1.23-10.82c0.73-3.53,1.51-7.07,2.89-10.47
				c0.68-1.69,1.52-3.31,2.27-4.91c0.76-1.6,1.36-3.24,1.8-4.95c0.73-3.48,1.74-7,2.97-10.36c1.23-3.38,2.64-6.69,4.31-9.88
				c1.67-3.18,3.58-6.25,5.87-9.02c2.29-2.75,5.02-5.23,8.28-6.74c-3.23,1.58-5.88,4.11-8.1,6.9c-2.22,2.8-4.04,5.89-5.63,9.09
				c-1.58,3.2-2.91,6.52-4.06,9.9c-1.15,3.39-2.06,6.8-2.7,10.35c-0.4,1.77-0.98,3.53-1.72,5.18c-0.72,1.66-1.49,3.26-2.1,4.91
				c-1.22,3.29-1.91,6.8-2.56,10.29c-0.62,3.49-1.04,7.02-0.98,10.52c0.01,1.75,0.19,3.48,0.52,5.16c0.18,0.83,0.4,1.65,0.71,2.41
				c0.14,0.39,0.33,0.75,0.51,1.1c0.1,0.16,0.2,0.34,0.31,0.48c0.09,0.14,0.25,0.32,0.27,0.35L88.22,90.29z"/>
			<path class="st0" d="M83.29,50.33c0.73,2.72,1.49,5.43,2.28,8.13c0.41,1.34,0.81,2.69,1.26,4.02c0.47,1.31,0.94,2.66,1.63,3.82
				l-0.36-0.06c1.82-1.37,3.63-2.77,5.43-4.16l2.7-2.11c0.9-0.7,1.8-1.4,2.67-2.14c-1.63,1.6-3.36,3.09-5.12,4.55
				c-1.76,1.46-3.56,2.86-5.37,4.26l-0.22,0.17l-0.14-0.24c-0.74-1.27-1.18-2.61-1.64-3.95c-0.44-1.34-0.84-2.7-1.2-4.06
				C84.47,55.84,83.84,53.09,83.29,50.33z"/>
			<path class="st0" d="M88.05,40.85c0.25,2.48,0.62,4.94,1.07,7.39c0.47,2.44,1.02,4.87,1.81,7.21l-0.34-0.14
				c2.51-1.3,4.97-2.69,7.33-4.26c1.18-0.77,2.34-1.58,3.45-2.46c1.09-0.88,2.22-1.78,2.95-3c-0.66,1.27-1.74,2.25-2.79,3.2
				c-1.08,0.93-2.22,1.78-3.39,2.6c-1.17,0.81-2.37,1.57-3.6,2.29c-1.23,0.72-2.46,1.43-3.73,2.06l-0.26,0.13l-0.09-0.27
				c-0.76-2.39-1.33-4.83-1.71-7.31C88.37,45.84,88.13,43.35,88.05,40.85z"/>
			<path class="st0" d="M93.7,31.82c-0.07,2.16,0,4.31,0.18,6.45c0.22,2.13,0.53,4.27,1.27,6.26l-0.35-0.12
				c1.01-0.63,2.02-1.27,2.97-2c0.95-0.73,1.87-1.49,2.76-2.29c0.9-0.8,1.77-1.62,2.61-2.48c0.85-0.85,1.68-1.72,2.46-2.64
				c-1.43,1.94-3.05,3.75-4.8,5.42c-0.87,0.84-1.8,1.61-2.75,2.37c-0.96,0.74-1.96,1.44-3,2.06L94.79,45l-0.1-0.28
				c-0.73-2.07-1.06-4.24-1.18-6.41C93.39,36.13,93.46,33.96,93.7,31.82z"/>
			<path class="st0" d="M98.89,25.21c-0.21,1.17-0.31,2.36-0.28,3.54c0.05,1.17,0.21,2.34,0.65,3.41L99,32.02
				c0.71-0.16,1.41-0.43,2.1-0.74c0.69-0.31,1.35-0.67,2-1.05c1.32-0.74,2.6-1.57,3.87-2.41c-1.14,1.02-2.37,1.94-3.66,2.77
				c-0.65,0.4-1.32,0.79-2.02,1.12s-1.42,0.64-2.21,0.78l-0.2,0.04l-0.07-0.18c-0.44-1.15-0.62-2.38-0.56-3.59
				C98.31,27.53,98.51,26.34,98.89,25.21z"/>
		</g>
		<path class="st4" d="M102.49,82.47c0,0,9.54-9.66,12.19-3.24c2.65,6.42-8.48,21.26-26.77,24.31S73.33,116.4,73.33,116.4
			s-8.84-6.36-0.31-23.06S96.66,75.58,102.49,82.47z"/>
		<g>
			<path class="st5" d="M102.7,82.97c-0.24-0.05-0.72-0.03-1.1,0.06c-0.41,0.08-0.81,0.22-1.21,0.37c-0.8,0.33-1.56,0.76-2.3,1.24
				c-1.48,0.97-2.82,2.15-4.1,3.4c-0.65,0.61-1.24,1.29-1.87,1.93c-0.63,0.67-1.3,1.3-2.01,1.88c-1.43,1.15-3.01,2.09-4.62,2.92
				c-3.21,1.66-6.67,2.9-9.32,5.35c-1.32,1.2-2.38,2.7-3.1,4.35c-0.73,1.65-1.17,3.41-1.42,5.2c0.21-1.79,0.61-3.57,1.3-5.25
				c0.68-1.68,1.72-3.22,3.04-4.48c2.65-2.56,6.13-3.89,9.26-5.61c1.58-0.85,3.1-1.81,4.45-2.96c1.36-1.13,2.46-2.55,3.75-3.85
				c1.27-1.31,2.62-2.55,4.14-3.6c0.76-0.52,1.56-1,2.43-1.38c0.44-0.18,0.89-0.35,1.37-0.45c0.5-0.1,0.93-0.2,1.58-0.08
				L102.7,82.97z"/>
			<path class="st5" d="M71.98,97.97c0.68-0.37,1.42-0.61,2.16-0.83c0.75-0.2,1.51-0.35,2.28-0.47c1.54-0.22,3.09-0.26,4.64-0.21
				l0.35,0.01l-0.13,0.33c-0.59,1.49-1.14,3.01-1.66,4.53c-0.52,1.52-1.02,3.05-1.47,4.6c0.24-1.6,0.65-3.17,1.1-4.72
				c0.46-1.55,1-3.08,1.57-4.59l0.22,0.34c-0.76-0.04-1.53-0.06-2.29-0.04s-1.52,0.07-2.28,0.13C74.95,97.2,73.43,97.44,71.98,97.97
				z"/>
			<path class="st5" d="M77.04,90c2.32-0.29,4.66-0.45,7.01-0.45c1.17,0,2.35,0.06,3.52,0.17c1.17,0.13,2.35,0.28,3.49,0.73
				l0.17,0.07l-0.01,0.17c-0.07,0.99-0.16,1.99-0.3,2.98c-0.15,0.99-0.33,1.97-0.61,2.93c-0.27,0.96-0.58,1.91-1,2.82
				c-0.43,0.9-0.91,1.78-1.57,2.53c0.6-0.79,1.01-1.7,1.36-2.62s0.63-1.86,0.85-2.82c0.23-0.96,0.38-1.93,0.52-2.9
				c0.13-0.98,0.2-1.96,0.26-2.94l0.15,0.24c-1.06-0.39-2.21-0.58-3.36-0.72c-1.15-0.13-2.31-0.2-3.48-0.23
				C81.72,89.88,79.38,89.91,77.04,90z"/>
			<path class="st5" d="M86.33,81.5c0.99-0.12,1.99,0,2.98,0.1c0.99,0.12,1.97,0.3,2.94,0.53c1.95,0.44,3.83,1.14,5.65,1.96
				l0.08,0.03l0.04,0.08c0.52,1.07,0.98,2.17,1.28,3.31c0.34,1.14,0.53,2.31,0.63,3.49c0.17,2.36-0.1,4.77-0.95,6.96
				c0.35-1.12,0.52-2.28,0.6-3.44c0.09-1.16,0.08-2.33-0.06-3.48c-0.13-1.15-0.33-2.3-0.68-3.4c-0.31-1.12-0.79-2.17-1.27-3.23
				l0.11,0.11c-1.77-0.85-3.64-1.51-5.54-2.05c-0.95-0.27-1.92-0.48-2.89-0.66C88.3,81.65,87.32,81.45,86.33,81.5z"/>
			<path class="st5" d="M101.29,82.2c1.09,0.31,2.1,0.77,3.06,1.33c0.96,0.56,1.85,1.25,2.59,2.07c0.75,0.82,1.29,1.82,1.6,2.88
				c0.35,1.06,0.28,2.19,0.18,3.27c0.06-1.09,0.09-2.2-0.3-3.23c-0.35-1.02-0.91-1.97-1.67-2.74c-0.76-0.77-1.64-1.4-2.59-1.91
				c-0.95-0.5-1.97-0.92-3-1.17L101.29,82.2z"/>
		</g>
		<g>
			<path class="st1" d="M126.36,117.13c2.13-1.77,4.28-3.51,6.57-5.07c1.14-0.78,2.31-1.54,3.53-2.22c1.23-0.69,2.54-1.19,3.85-1.66
				c1.32-0.46,2.67-0.82,4.04-1.11c1.36-0.29,2.72-0.52,4.03-0.88s2.59-0.83,3.83-1.4c1.28-0.6,2.63-1.01,3.98-1.36
				c5.41-1.34,10.97-1.91,16.52-1.83c2.77,0.06,5.55,0.26,8.28,0.79c2.72,0.54,5.41,1.34,7.83,2.69c-2.47-1.26-5.17-1.95-7.88-2.39
				c-2.72-0.41-5.48-0.6-8.23-0.59c-2.75,0.01-5.5,0.21-8.24,0.52c-2.73,0.32-5.45,0.78-8.1,1.48c-1.32,0.36-2.62,0.76-3.85,1.35
				c-1.26,0.6-2.59,1.08-3.95,1.44c-1.36,0.36-2.73,0.58-4.08,0.86c-1.35,0.27-2.67,0.61-3.97,1.05c-1.29,0.45-2.58,0.94-3.79,1.55
				c-1.22,0.62-2.4,1.33-3.56,2.07C130.86,113.92,128.57,115.47,126.36,117.13z"/>
			<path class="st1" d="M144.36,101.85c-0.9,0.58-1.76,1.21-2.6,1.88c-0.84,0.66-1.66,1.35-2.42,2.09c-1.51,1.47-2.96,3.12-3.65,5.1
				l-0.11-0.27c0.99,0.45,1.98,0.89,2.99,1.29c1.01,0.4,2.04,0.74,3.07,1.05c1.04,0.31,2.1,0.54,3.17,0.68
				c1.07,0.13,2.18,0.21,3.22-0.12c-1.02,0.41-2.16,0.4-3.24,0.34c-1.09-0.09-2.18-0.29-3.24-0.57c-1.06-0.26-2.1-0.62-3.13-1
				c-1.02-0.39-2.03-0.82-3.03-1.27l-0.18-0.08l0.07-0.19c0.38-1.04,0.95-1.98,1.62-2.84c0.67-0.86,1.41-1.65,2.22-2.36
				C140.71,104.13,142.48,102.89,144.36,101.85z"/>
			<path class="st1" d="M152.02,100.29c-1.45,0.96-2.75,2.11-3.98,3.32c-1.21,1.23-2.35,2.53-3.35,3.94l-0.08-0.32
				c0.94,0.45,1.89,0.88,2.88,1.25c0.98,0.36,1.99,0.65,3,0.89c2.03,0.47,4.15,0.72,6.24,0.46c-2.07,0.44-4.24,0.28-6.31-0.12
				c-2.08-0.42-4.1-1.15-6-2.1l-0.23-0.11l0.15-0.2c1.05-1.4,2.19-2.73,3.48-3.92C149.1,102.2,150.49,101.11,152.02,100.29z"/>
			<path class="st1" d="M166.73,96.21c-1.67,0.99-3.28,2.06-4.8,3.25c-1.5,1.2-2.96,2.49-4.02,4.07l-0.09-0.32
				c1.76,0.75,3.54,1.45,5.34,2.1c1.8,0.67,3.61,1.29,5.43,1.9c-1.87-0.43-3.72-0.97-5.54-1.57c-1.82-0.61-3.62-1.28-5.39-2.04
				l-0.24-0.1l0.15-0.21c1.14-1.62,2.61-2.94,4.19-4.09C163.31,98.06,164.98,97.05,166.73,96.21z"/>
			<path class="st1" d="M178.29,97.84c-1.59,0.43-3.17,0.93-4.69,1.54c-0.76,0.31-1.5,0.65-2.21,1.06c-0.69,0.4-1.38,0.88-1.79,1.52
				l-0.03-0.26c0.64,0.54,1.42,0.96,2.2,1.36c0.79,0.39,1.6,0.74,2.42,1.07c1.63,0.68,3.29,1.3,4.95,1.91
				c-1.72-0.43-3.42-0.97-5.09-1.58c-0.83-0.32-1.65-0.66-2.46-1.04c-0.81-0.39-1.61-0.79-2.31-1.42l-0.13-0.12l0.1-0.15
				c0.5-0.75,1.23-1.22,1.96-1.64c0.73-0.41,1.51-0.73,2.29-1.01C175.06,98.53,176.67,98.12,178.29,97.84z"/>
		</g>
	</g>
	<g>
		<polygon class="st6" points="59.52,138.25 68.59,200 123.26,200 131.52,138.25 		"/>
		<path class="st7" d="M130.14,148.55l1.38-10.3h-72L68.59,200h12.03C79.48,170.39,95.8,140.72,130.14,148.55z"/>
		<path class="st6" d="M130.19,143H60.86c-3.85,0-7-3.15-7-7l0,0c0-3.85,3.15-7,7-7h69.33c3.85,0,7,3.15,7,7l0,0
			C137.19,139.85,134.04,143,130.19,143z"/>
	</g>
	<g>
		<path class="st3" d="M105.49,123.26c0,0,2.28-7.7,9.55-3.99c7.27,3.71,8.7,21.24-3.71,34.07c-0.57-6.56-1.57-9.84-7.13-16.11
			C98.65,130.95,100.36,124.4,105.49,123.26z"/>
		<g>
			<path class="st5" d="M105.61,122.84c1.37,0.34,2.62,0.94,3.74,1.76c1.11,0.83,2.04,1.93,2.59,3.21c0.55,1.28,0.72,2.7,0.6,4.06
				c-0.14,1.33-0.08,2.64,0.17,3.95c0.47,2.61,1.72,5.1,1.82,7.83c0.07,1.36-0.21,2.71-0.72,3.96c-0.52,1.25-1.23,2.4-2.04,3.47
				c0.78-1.09,1.47-2.25,1.95-3.5c0.47-1.25,0.71-2.59,0.62-3.92c-0.17-2.68-1.45-5.11-2-7.77c-0.29-1.32-0.38-2.71-0.27-4.06
				c0.09-1.31-0.09-2.63-0.62-3.81c-1.06-2.39-3.5-3.94-5.98-4.54L105.61,122.84z"/>
			<path class="st5" d="M117.32,144.83c-0.39-0.88-0.96-1.65-1.57-2.38c-0.63-0.71-1.3-1.39-2.04-1.98l0.25-0.06
				c-0.94,2.07-1.99,4.12-3.31,5.98c1.07-2.01,2.08-4.04,3.02-6.11l0.09-0.2l0.16,0.14c0.73,0.63,1.43,1.31,2.02,2.08
				C116.52,143.07,117.05,143.9,117.32,144.83z"/>
			<path class="st5" d="M118.9,138.52c-1.01-1.04-2.06-2.05-3.15-3c-0.55-0.47-1.1-0.93-1.69-1.35c-0.58-0.41-1.2-0.8-1.86-1.03
				l0.18-0.05c-0.45,0.53-0.89,1.07-1.3,1.63s-0.8,1.13-1.17,1.72s-0.7,1.2-0.99,1.83c-0.29,0.63-0.55,1.28-0.68,1.97
				c0.07-0.7,0.28-1.37,0.53-2.03c0.26-0.65,0.58-1.28,0.92-1.9c0.69-1.22,1.54-2.36,2.43-3.44l0.07-0.09l0.11,0.04
				c0.72,0.25,1.33,0.67,1.93,1.09c0.59,0.44,1.16,0.9,1.69,1.4C116.99,136.32,117.98,137.4,118.9,138.52z"/>
			<path class="st5" d="M118.24,130.83c-0.43-0.45-0.97-0.77-1.5-1.09c-0.53-0.31-1.07-0.62-1.63-0.88
				c-1.12-0.52-2.28-0.95-3.48-1.25l0.1-0.01c-1.49,0.69-2.91,1.55-4.12,2.67c-0.62,0.54-1.19,1.14-1.71,1.78s-1.02,1.31-1.41,2.04
				c0.68-1.52,1.72-2.88,2.93-4.03c0.62-0.57,1.27-1.1,1.98-1.55c0.69-0.48,1.45-0.85,2.21-1.2l0.05-0.02l0.05,0.01
				c1.21,0.33,2.4,0.76,3.5,1.35c0.55,0.29,1.1,0.61,1.61,0.96C117.32,129.99,117.84,130.35,118.24,130.83z"/>
			<path class="st5" d="M117.94,123.73c-1.31-1.18-3.1-1.69-4.82-1.68c-1.74-0.01-3.44,0.53-4.99,1.29
				c-0.78,0.38-1.51,0.84-2.15,1.43c-0.66,0.56-1.24,1.21-1.71,1.94c-0.95,1.44-1.56,3.13-1.66,4.88c-0.06-1.76,0.47-3.54,1.42-5.04
				c0.47-0.75,1.06-1.44,1.73-2.02c0.65-0.61,1.43-1.07,2.23-1.45c1.59-0.77,3.34-1.3,5.13-1.23
				C114.89,121.86,116.69,122.49,117.94,123.73z"/>
		</g>
	</g>
</g>
</svg>
