<?xml version="1.0" encoding="utf-8"?>
<!-- Generator: Adobe Illustrator 27.2.0, SVG Export Plug-In . SVG Version: 6.00 Build 0)  -->
<svg version="1.1" id="Layer_1" xmlns="http://www.w3.org/2000/svg" xmlns:xlink="http://www.w3.org/1999/xlink" x="0px" y="0px"
	 viewBox="0 0 200 200" style="enable-background:new 0 0 200 200;" xml:space="preserve">
<style type="text/css">
	.st0{fill:#388C38;}
	.st1{fill:#8CC64E;}
	.st2{fill:#506815;}
	.st3{fill:#347A34;}
	.st4{fill:#5CAA2E;}
	.st5{fill:#1C5E1C;}
	.st6{fill:#D18133;}
	.st7{fill:#C46C23;}
</style>
<g id="_x33_">
	<g>
		<g>
			<path class="st0" d="M81.02,80.46c0,0,6.86,10.53-5.18,16.03s-33.54-5.77-46.87,9.37C32.3,84.83,40.18,75.94,52.3,71.49
				C66.97,66.12,85.53,71.28,81.02,80.46z"/>
			<path class="st1" d="M70.97,79c-8.58,1.91-12.61,11.08-12.1,18.87c1.7,0.1,3.37,0.2,5,0.25C63.15,91.26,65.22,82.83,70.97,79z"/>
			<path class="st1" d="M51.43,81.34c-7.5,2.81-8.43,9.8-10.11,17.17c1.48-0.35,2.98-0.59,4.5-0.74
				C45.22,91.4,47.67,86.04,51.43,81.34z"/>
			<path class="st1" d="M58.97,79c-1.56-3.89-4.32-5.36-7.36-7.23c-2.16,0.83-4.19,1.82-6.07,3C50.05,74.79,54.76,76.89,58.97,79z"
				/>
			<path class="st2" d="M106.99,133.03c0.8-4.74,0.75-9.79,0.2-14.66c-0.54-4.9-1.72-9.74-3.48-14.35
				c-1.76-4.6-4.15-9.04-7.05-12.95c-1.52-1.91-3.36-3.56-5.34-5.01s-4.14-2.66-6.41-3.63c-4.53-1.98-9.43-3.08-14.38-3.44
				c-4.95-0.35-9.97,0.05-14.79,1.26c-4.82,1.2-9.46,3.25-13.47,6.23c-1.98,1.51-3.82,3.22-5.4,5.15c-1.55,1.95-2.86,4.1-3.91,6.37
				c1.01-2.29,2.28-4.46,3.81-6.45c1.56-1.97,3.37-3.72,5.35-5.27c3.98-3.06,8.64-5.22,13.49-6.51c4.86-1.31,9.93-1.8,14.96-1.53
				c5.03,0.28,10.05,1.31,14.72,3.26c2.35,0.96,4.6,2.17,6.68,3.64c2.08,1.47,4.02,3.16,5.65,5.14c3.12,4.06,5.58,8.49,7.48,13.2
				c1.88,4.7,3.17,9.65,3.82,14.68c0.63,5.05,0.8,10.11,0.02,15.26L106.99,133.03z"/>
		</g>
		<g>
			<path class="st3" d="M118.28,86.09c0,0-3.13,12.18,10.04,13.53c13.16,1.36,29.93-16.19,47.4-6.12
				c-9.89-18.86-20.2-24.77-33.1-25.1C127,68.01,111.08,78.83,118.28,86.09z"/>
			<path class="st4" d="M157.97,83c2.79-2.79,5.59-3.15,8.73-3.11c-1.17-1.34-2.36-2.54-3.56-3.61
				C160.35,77.53,157.97,79.55,157.97,83z"/>
			<path class="st4" d="M123.97,84c1.67,5.85,4.73,10.31,5.7,15.7c1.09,0.01,2.21-0.1,3.35-0.3C133.54,92.77,126.89,88.85,123.97,84
				z"/>
			<path class="st4" d="M138.14,82c1.45-7.49,9.37-11.2,16.57-11.13c-3.48-1.48-7.13-2.21-11.01-2.41
				c-5.73,1.91-9.98,7.11-11.54,13.78c3.45,4.34,6.85,9.42,7.64,15.24c1.94-0.71,3.92-1.53,5.94-2.35
				C144.91,89.9,141.91,85.36,138.14,82z"/>
			<path class="st4" d="M141.97,81.58c6.08,1.52,8.69,6.35,9.15,11.46c1.73-0.62,3.49-1.19,5.27-1.63
				C154.1,85.56,151.62,79.67,141.97,81.58z"/>
			<path class="st2" d="M95.31,131.03c-0.01-4.81,0.47-9.5,1.34-14.17c0.88-4.66,2.19-9.25,4.16-13.6c1.96-4.33,4.62-8.42,8.2-11.63
				c1.78-1.61,3.79-2.96,5.88-4.07c2.09-1.13,4.29-2.04,6.52-2.81c4.47-1.55,9.11-2.53,13.78-3.1c4.67-0.56,9.4-0.71,14.09-0.41
				c4.69,0.31,9.37,1.06,13.82,2.59c2.22,0.77,4.38,1.74,6.33,3.06c1.94,1.31,3.67,3,4.75,5.1c-1.11-2.07-2.87-3.72-4.82-4.99
				c-1.96-1.27-4.12-2.2-6.34-2.93c-4.45-1.44-9.11-2.1-13.77-2.33c-4.66-0.22-9.35,0.01-13.96,0.65
				c-4.61,0.65-9.18,1.69-13.54,3.29c-4.35,1.59-8.56,3.74-11.9,6.86c-3.36,3.12-5.86,7.1-7.68,11.32c-1.83,4.23-3.03,8.74-3.8,13.3
				c-0.76,4.55-1.15,9.23-1.06,13.8L95.31,131.03z"/>
		</g>
		<g>
			<path class="st4" d="M94.98,62.58c0,0,1.32,8.92-12.53,8.06C61.88,69.36,68.1,42.25,63.54,29
				c-4.57-13.25-16.32-15.75-16.32-15.75s35.9,3.75,49.07,21.5S104.99,65.24,94.98,62.58z"/>
			<path class="st1" d="M84.01,24.44c-1.21-0.69-2.46-1.34-3.72-1.96c-1.24,2.1-2.29,6.88,0.06,12.82
				C79.23,28.76,82.23,25.67,84.01,24.44z"/>
			<path class="st1" d="M66.14,47.97c0.2,2.04,0.45,4.07,0.8,6.02c3.73-1.46,13.26-3.97,25.51,1.84
				c0.82-10.25,4.33-16.37,5.71-18.42c-0.58-0.87-1.19-1.76-1.86-2.66c-0.69-0.93-1.46-1.82-2.27-2.68
				c-2.21,2.35-6.96,8.34-5.8,15.31C81.19,45.17,70.56,45.35,66.14,47.97z"/>
			<path class="st2" d="M97.99,133.03c0.99-5.04,1.6-10.24,2.04-15.41c0.43-5.18,0.6-10.38,0.55-15.58
				c-0.1-10.4-1.26-20.8-3.63-30.93c-1.24-5.05-2.81-10.02-4.74-14.85c-1.93-4.84-4.35-9.46-7.1-13.88l-2.15-3.26L80.61,36
				c-0.76-1.06-1.64-2.03-2.49-3.01c-0.88-0.96-1.67-2.01-2.63-2.9l-2.78-2.76c-0.94-0.9-1.97-1.71-2.95-2.57l-1.49-1.27
				c-0.51-0.4-1.05-0.78-1.57-1.17L63.54,20l3.2,2.27c0.53,0.38,1.07,0.75,1.59,1.14l1.51,1.25c1,0.85,2.04,1.64,3,2.53l2.83,2.72
				c0.98,0.88,1.79,1.91,2.68,2.86c0.88,0.97,1.77,1.93,2.55,2.98l2.42,3.1l2.21,3.25c2.83,4.4,5.35,9.02,7.37,13.87
				c2.02,4.84,3.69,9.82,5.02,14.9c2.56,10.18,3.89,20.65,4.16,31.14c0.14,5.25,0.04,10.5-0.3,15.74
				c-0.36,5.25-0.88,10.45-1.82,15.68L97.99,133.03z"/>
		</g>
		<g>
			<path class="st0" d="M111.4,75.38c0,0-1.32,8.92,12.53,8.06c20.57-1.28,14.35-28.39,18.91-41.64
				c4.57-13.25,16.32-15.75,16.32-15.75s-35.9,3.75-49.07,21.5C96.9,65.3,101.39,78.05,111.4,75.38z"/>
			<path class="st1" d="M141.54,47.46c0.31-2.05,0.71-3.97,1.3-5.66c0.07-0.21,0.15-0.41,0.23-0.62c-4.01-0.93-8.76-0.47-13.06,1.68
				c0.83-4.96,4.01-9.08,7.57-12.11c-3.78,1.2-7.7,2.68-11.45,4.5c-2.86,4.57-2.21,11.12-3.8,16.71
				C128.6,47.48,134.54,46.06,141.54,47.46z"/>
			<path class="st1" d="M111.97,71c8.31,0.92,15.75,3.57,22.36,7.9c2.01-2.19,3.33-5.01,4.22-8.19
				C129.5,69.55,121.16,67.33,111.97,71z"/>
			<path class="st1" d="M116.97,60c8.11,0,16.22-0.79,22.87,4.18c0.21-1.58,0.38-3.19,0.53-4.8C132.89,56.33,123.83,54.86,116.97,60
				z"/>
			<path class="st1" d="M116.76,40.93c-2.56,1.96-4.85,4.15-6.68,6.62c-0.12,0.16-0.23,0.32-0.35,0.48
				c0.13,5.59,2.21,10.93,6.24,14.96C115.97,55.64,115.98,48.29,116.76,40.93z"/>
			<path class="st2" d="M100.97,136.04c-0.11-5.14,0.08-10.21,0.42-15.29c0.34-5.08,0.87-10.14,1.6-15.18
				c0.72-5.04,1.64-10.04,2.78-15c1.16-4.95,2.56-9.85,4.23-14.66c1.64-4.82,3.66-9.5,6-14.02c1.13-2.28,2.47-4.45,3.78-6.63
				l2.14-3.16c0.7-1.06,1.54-2.03,2.3-3.04c3.18-3.96,6.73-7.65,10.81-10.7c4.07-3.04,8.55-5.51,13.26-7.36
				c-4.69,1.94-9.11,4.47-13.11,7.56c-4.01,3.09-7.47,6.83-10.57,10.81c-0.74,1.02-1.56,1.99-2.23,3.06l-2.07,3.17
				c-1.26,2.19-2.55,4.36-3.64,6.64c-2.24,4.52-4.17,9.2-5.72,14.01c-1.57,4.8-2.88,9.68-3.95,14.61
				c-1.05,4.94-1.88,9.92-2.51,14.93c-1.24,10.01-1.83,20.15-1.5,30.18L100.97,136.04z"/>
		</g>
		<g>
			<path class="st5" d="M88.05,117.44c0,0,4.33,13.31-12.5,11.56s-35.52-13.5-51.27-3c21.25-22.5,31.76-28.6,50.69-26.25
				C92.47,101.93,91.01,114.38,88.05,117.44z"/>
			<path class="st0" d="M65.64,99.34c-4.09,0.22-7.88,1.04-11.65,2.58c6.59-0.4,14.86,0.98,19.23,6.08
				C73.22,103.28,69.3,101.24,65.64,99.34z"/>
			<path class="st0" d="M55.97,106.81c-3.43,0-7.85-0.47-11.27,0.37c-5.97,4.24-12.43,10.36-20.41,18.81
				c5.39-3.59,11.12-4.57,17-4.25C42.91,114.51,50.27,110.07,55.97,106.81z"/>
			<path class="st0" d="M47.08,122.44c2.85,0.5,5.72,1.2,8.6,1.96c3.14-9.05,13.05-12.65,21.3-15.4
				C65.31,106.5,52.27,112.33,47.08,122.44z"/>
			<path class="st2" d="M97.84,136.27c-1.4-4.67-3.62-9.26-6.37-13.38c-2.78-4.12-6.19-7.86-10.31-10.68
				c-2.06-1.41-4.27-2.59-6.58-3.52c-2.34-0.89-4.77-1.51-7.25-1.91c-4.98-0.67-10.09-0.32-15.02,0.76
				c4.9-1.25,10.01-1.77,15.08-1.26c2.53,0.32,5.03,0.86,7.45,1.7c2.4,0.88,4.71,2.01,6.88,3.39c4.34,2.76,7.99,6.5,10.99,10.65
				c2.99,4.19,5.39,8.73,7.06,13.69L97.84,136.27z"/>
		</g>
	</g>
	<g>
		<polygon class="st6" points="70.01,138.25 79.08,200 133.75,200 142.01,138.25 		"/>
		<path class="st7" d="M140.64,148.55l1.38-10.3h-72L79.09,200h12.03C89.97,170.4,106.29,140.73,140.64,148.55z"/>
		<path class="st6" d="M140.68,143H71.35c-3.85,0-7-3.15-7-7l0,0c0-3.85,3.15-7,7-7h69.33c3.85,0,7,3.15,7,7l0,0
			C147.68,139.85,144.53,143,140.68,143z"/>
	</g>
	<g>
		<path class="st0" d="M122.78,107.64c0,0-14.14,10.09-3.64,25.59s20.89,19.88,18.38,38.63c13.21-28.61,16.57-45.86,10.76-57.11
			C142.47,103.5,127.95,99.14,122.78,107.64z"/>
		<path class="st1" d="M127.97,109c-5,1.11-9.37,4.38-12.1,8.61c-0.83,2.91-0.93,6.39,0.52,10.34
			C117.59,120.47,121.45,113.07,127.97,109z"/>
		<path class="st1" d="M145.29,110.36c-4.08-1.46-8.52-1.36-13.32,1.64c6.37,0,12.73,0.64,17.08,4.43
			c-0.24-0.57-0.49-1.14-0.77-1.68C147.45,113.14,146.43,111.67,145.29,110.36z"/>
		<path class="st1" d="M139.97,142c0,4.77-1.9,8.9-4.68,12.91c1,2.01,1.74,4.17,2.18,6.59C139.03,155.16,140.43,148.79,139.97,142z"
			/>
		<path class="st1" d="M135.97,120c-0.87,7.86-4.03,16.47-10.81,21.2c2.35,2.86,4.54,5.37,6.43,7.88
			c4.77-5.67,8.78-12.87,6.38-20.08c5.68,1.62,9.38,6.53,11.11,12.07c0.67-2.69,1.16-5.21,1.48-7.58
			C147.81,127.08,143.2,121.45,135.97,120z"/>
		<path class="st2" d="M139.86,136.13c-0.38-3.79-1-7.57-2.01-11.26c-0.99-3.69-2.33-7.32-4.29-10.65c-1-1.65-2.17-3.23-3.62-4.57
			c-1.44-1.32-3.25-2.46-5.34-2.66c-0.26-0.02-0.52-0.05-0.78-0.06l-0.78,0.06c-0.53,0-1.02,0.2-1.52,0.31
			c-0.48,0.17-0.96,0.38-1.42,0.6c-0.43,0.27-0.89,0.5-1.28,0.81c-0.38,0.32-0.81,0.62-1.16,0.95l-1.05,0.99
			c-0.71,0.65-1.38,1.35-2.03,2.06c-2.62,2.83-4.95,5.94-6.85,9.31c-1.26,2.25-2.37,4.57-3.25,7.01h2.03
			c0.76-2.11,1.7-4.18,2.76-6.16c1.75-3.29,3.94-6.35,6.43-9.15c0.62-0.7,1.25-1.39,1.93-2.04l1-0.99c0.33-0.33,0.68-0.58,1.03-0.88
			c1.4-1.11,3.11-1.74,4.83-1.57c1.73,0.12,3.36,1.06,4.72,2.26c1.37,1.21,2.52,2.69,3.52,4.26c0.98,1.59,1.81,3.28,2.56,5
			c0.7,1.74,1.36,3.52,1.87,5.33c1.07,3.62,1.78,7.35,2.23,11.11c0.91,7.53,0.79,15.17-0.11,22.71
			C140.32,151.38,140.61,143.72,139.86,136.13z"/>
	</g>
	<g>
		<path class="st4" d="M101.91,99.28c0,0-5.94-10.44-17.6-4.44c-11.67,6-7.71,40.5,5.56,60.17c3.77-14.33,10.05-29.23,21.66-37.37
			S113.18,96.89,101.91,99.28z"/>
		<path class="st1" d="M80.38,133.62c1.05,3.79,2.37,7.56,3.93,11.13c0.88-8.31,3.45-15.71,6.67-23.75
			C85.96,123.5,81.66,128.1,80.38,133.62z"/>
		<path class="st1" d="M89.53,133.48c-2.04,5.45-2.7,10.96-2.88,16.12c1,1.89,2.07,3.71,3.22,5.4c0.77-2.92,1.66-5.87,2.67-8.77
			C91.3,142.02,89.42,137.83,89.53,133.48z"/>
		<path class="st1" d="M97.97,104c-3.64-5.46-13.05-5.11-19.24-1.25c-1.33,4.47-1.63,10.28-1.03,16.6
			c3.48-5.69,9.62-9.77,15.28-8.35c5.09,1.7,6.59,9.88,8.76,16.6c1.4-1.96,2.92-3.8,4.57-5.49C105.12,115.27,102.35,109.1,97.97,104
			z"/>
		<path class="st2" d="M104.35,98.76c-1.01,0.14-2.11,0.56-3.07,1.09c-0.96,0.57-1.9,1.2-2.7,2c-1.65,1.55-2.94,3.46-3.97,5.5
			l-0.74,1.55l-0.6,1.61l-0.3,0.81l-0.24,0.83l-0.48,1.66c-0.28,1.12-0.49,2.25-0.73,3.38l-0.56,3.43
			c-0.68,4.59-1.12,9.21-1.34,13.84c-0.19,4.63-0.2,9.29,0.24,13.91c-0.52-4.62-0.6-9.27-0.49-13.92c0.13-4.65,0.49-9.29,1.09-13.9
			l0.5-3.45c0.23-1.14,0.42-2.3,0.68-3.44l0.45-1.7l0.23-0.85l0.29-0.83l0.59-1.66l0.73-1.61c1.03-2.11,2.32-4.13,4.04-5.8
			c1.72-1.65,3.76-3.03,6.28-3.46L104.35,98.76z"/>
	</g>
</g>
</svg>
