<?xml version="1.0" encoding="utf-8"?>
<!-- Generator: Adobe Illustrator 27.2.0, SVG Export Plug-In . SVG Version: 6.00 Build 0)  -->
<svg version="1.1" id="Layer_1" xmlns="http://www.w3.org/2000/svg" xmlns:xlink="http://www.w3.org/1999/xlink" x="0px" y="0px"
	 viewBox="0 0 200 200" style="enable-background:new 0 0 200 200;" xml:space="preserve">
<style type="text/css">
	.st0{fill:#3AA33A;}
	.st1{fill:#49CE49;}
	.st2{fill:#347A34;}
	.st3{fill:#D18133;}
	.st4{fill:#C46C23;}
</style>
<g id="_x30_" transform="translate(200, 200)">
	<g>
		<g>
			<path class="st0" d="M-103.68-107.85c0,0-1.73-4.27-14.6-13.48c-12.87-9.2-24.33-24.49-13.4-31.21
				C-120.74-159.26-99.59-134.1-103.68-107.85z"/>
		</g>
		<g>
			<path class="st1" d="M-131.67-152.54c-2.4,1.48-3.72,3.36-4.18,5.51c0.51-0.48,1.11-0.93,1.83-1.37
				c10.93-6.72,34.44,14.3,30.35,40.55C-99.59-134.1-120.74-159.26-131.67-152.54z"/>
		</g>
		<g>
			<g>
				<path class="st2" d="M-95.09-64.72h-2c0-0.28,0.28-28.38,24.87-48.37c23.73-19.29,38.13-31.96,38.13-45.19h2
					c0,14.12-14.68,27.08-38.87,46.75C-94.78-92.17-95.09-64.99-95.09-64.72z"/>
			</g>
			<g>
				<path class="st2" d="M-109.24-67.58c-0.06-0.48-6.45-48.24-49.05-65.27l0.74-1.86c43.71,17.48,50.23,66.39,50.29,66.88
					L-109.24-67.58z"/>
			</g>
			<g>
				<path class="st2" d="M-105.58-69.26c-0.11-1.46-2.47-36.03,11.88-53.97c25.19-31.48,13.31-61.67,13.19-61.97l1.85-0.76
					c0.13,0.31,12.44,31.59-13.48,63.98c-13.86,17.32-11.48,52.22-11.45,52.57L-105.58-69.26z"/>
			</g>
			<g>
				<path class="st2" d="M-29.6-94.46c-28.62-17.06-55.39-1.29-55.65-1.13l-1.04-1.71c0.28-0.17,28.04-16.56,57.71,1.12L-29.6-94.46
					z"/>
			</g>
			<g>
				<path class="st2" d="M-113.92-85.23c-18.46-25.78-51.86-21.73-52.2-21.69l-0.26-1.98c0.35-0.05,34.93-4.24,54.08,22.51
					L-113.92-85.23z"/>
			</g>
			<g>
				<path class="st2" d="M-99.79-106.5l-1.94-0.49c8.31-32.61-14.64-60.83-14.87-61.11l1.54-1.28
					C-114.83-169.09-91.23-140.11-99.79-106.5z"/>
			</g>
		</g>
		<g>
			<path class="st1" d="M-80.29-145.02c0,0,0.7-4.56-5.63-19.06c-6.33-14.5-8.33-33.5,4.5-33.67
				C-68.59-197.91-63.33-165.46-80.29-145.02z"/>
		</g>
		<g>
			<path class="st0" d="M-80.29-145.02c0,0,0.7-4.56-5.63-19.06c-6.33-14.5-4.97-28.17,4.67-28.17
				C-73.32-192.24-63.33-165.46-80.29-145.02z"/>
		</g>
		<g>
			<path class="st0" d="M-53.98-127c0,0,3.33-3.19,7.12-18.55s13.76-31.66,24.05-23.98C-12.52-161.86-28.08-132.91-53.98-127z"/>
		</g>
		<g>
			<path class="st2" d="M-53.97-126.99c0,0,2.97-2.85,6.36-16.56c3.39-13.72,12.29-28.27,21.47-21.41
				C-16.95-158.12-30.85-132.27-53.97-126.99z"/>
		</g>
		<g>
			<path class="st0" d="M-80.85-104.39c0,0,1.45-4.38-2.41-19.72c-3.85-15.35-2.69-34.42,10-32.46
				C-60.57-154.62-60.74-121.76-80.85-104.39z"/>
		</g>
		<g>
			<path class="st2" d="M-80.5-104.33c0,0,1.36-3.99-2.5-18.04c-3.85-14.05-2.9-31.46,9.36-29.56
				C-61.38-150.04-61.25-120.02-80.5-104.33z"/>
		</g>
		<g>
			<path class="st0" d="M-104.86-74.58c0,0,1.45-4.38-2.41-19.72s-2.69-34.42,10-32.46C-84.58-124.81-84.75-91.94-104.86-74.58z"/>
		</g>
		<g>
			<path class="st2" d="M-104.86-74.58c0,0,1.45-4.38-2.41-19.72s-4.32-30.39,8.36-28.44C-86.22-120.79-84.75-91.94-104.86-74.58z"
				/>
		</g>
		<g>
			<path class="st0" d="M-100.29-134.59c0,0-0.96-4.51-12.02-15.82s-19.67-28.37-7.73-33.08
				C-108.09-188.2-91.67-159.72-100.29-134.59z"/>
		</g>
		<g>
			<path class="st2" d="M-100.29-134.59c0,0-0.96-4.51-12.02-15.82s-16.1-24.99-6.61-29.16
				C-111.31-182.91-91.67-159.72-100.29-134.59z"/>
		</g>
		<g>
			<path class="st0" d="M-134.03-117.66c0,0-3.03-3.47-18.2-7.97s-30.99-15.22-22.84-25.14
				C-166.93-160.69-138.73-143.8-134.03-117.66z"/>
		</g>
		<g>
			<path class="st2" d="M-134.03-117.66c0,0-3.03-3.47-18.2-7.97s-26.73-14.48-20.11-22.36
				C-165.23-156.43-138.73-143.8-134.03-117.66z"/>
		</g>
		<g>
			<path class="st0" d="M-128.41-100.14c0,0-4.3-1.66-19.82,1.43c-15.52,3.09-34.51,0.98-31.93-11.59
				C-177.57-122.87-144.75-121.08-128.41-100.14z"/>
		</g>
		<g>
			<path class="st2" d="M-128.41-100.14c0,0-4.3-1.66-19.82,1.43c-15.52,3.09-30.94,2.08-28.36-10.49
				C-174-121.77-144.75-121.08-128.41-100.14z"/>
		</g>
		<g>
			<path class="st2" d="M-110.06-77.66c0,0-4.3-1.66-19.82,1.43c-15.52,3.09-34.51,0.98-31.93-11.59
				C-159.23-100.4-126.41-98.6-110.06-77.66z"/>
		</g>
		<g>
			<path class="st0" d="M-75.8-100.63c0,0,4.51-0.95,19.33,4.6c14.82,5.55,33.9,6.53,33.38-6.3
				C-23.62-115.15-56.3-118.67-75.8-100.63z"/>
		</g>
		<g>
			<path class="st2" d="M-75.8-100.63c0,0,4.53-1,19.33,4.6c10.89,4.12,29.41,7.12,28.89-5.71
				C-28.11-114.56-58.96-116.12-75.8-100.63z"/>
		</g>
	</g>
	<g>
		<polygon class="st3" points="-138.07,-61.75 -129,0 -74.34,0 -66.07,-61.75 		"/>
		<path class="st4" d="M-67.45-51.45l1.38-10.3h-72L-129,0h12.03C-118.11-29.6-101.8-59.27-67.45-51.45z"/>
		<path class="st3" d="M-67.4-57h-69.33c-3.85,0-7-3.15-7-7l0,0c0-3.85,3.15-7,7-7h69.33c3.85,0,7,3.15,7,7l0,0
			C-60.4-60.15-63.55-57-67.4-57z"/>
	</g>
</g>
</svg>
