<?xml version="1.0" encoding="utf-8"?>
<!-- Generator: Adobe Illustrator 27.4.0, SVG Export Plug-In . SVG Version: 6.00 Build 0)  -->
<svg version="1.1" id="Book_Layer" xmlns="http://www.w3.org/2000/svg" xmlns:xlink="http://www.w3.org/1999/xlink" x="0px" y="0px"
	 viewBox="0 0 554.9 900.1" style="enable-background:new 0 0 554.9 900.1;" xml:space="preserve">
<style type="text/css">
	.st0{fill:#FFF1CF;}
	.st1{fill:#827978;}
	.st2{font-family:'TheHandRegular';}
	.st3{font-size:60.7518px;}
	.st4{font-size:60.746px;}
	.st5{font-size:60.7491px;}
	.st6{font-size:60.7514px;}
	.st7{font-size:60.7512px;}
	.st8{font-size:60.7513px;}
	.st9{font-size:60.752px;}
	.st10{font-size:60.7463px;}
	.st11{font-size:60.751px;}
	.st12{font-size:60.7468px;}
	.st13{font-size:60.7519px;}
	.st14{font-size:60.7471px;}
	.st15{font-size:60.747px;}
	.st16{font-size:60.7465px;}
	.st17{font-size:60.7511px;}
	.st18{font-size:60.7469px;}
	.st19{font-size:60.7515px;}
	.st20{font-size:60.7516px;}
	.st21{font-size:60.7464px;}
	.st22{font-size:60.7517px;}
	.st23{fill:none;}
	.st24{font-size:60.7461px;}
	.st25{font-size:60.7462px;}
	.st26{font-size:60.7521px;}
	.st27{font-size:60.7466px;}
	.st28{font-size:60.7467px;}
	.st29{fill:none;stroke:#000000;stroke-miterlimit:10;}
	.st30{font-size:60px;}
</style>
<g id="R_Top_Page_00000158707445039968481480000014049822908336741769_">
	<path id="PageBg" class="st0" d="M553.7,896.9c-4.6-2.5-25.1-3.3-67.9-4.9c-33.1-1.2-74.4-2.7-119.8-5.9
		c-31.4-2.2-72.7-3.3-119.6-3.3c-56.1,0-118.6,1.7-167,4.6c-23.8,1.4-43.5,3-57,4.8c-14.4,1.8-19.5,3.4-21.3,4.5V23.3
		c0-8.6,17.4-23,134-23c61.6,0,139.3,4,230.7,12c94.7,8.2,178.4,11.2,185.5,11.5C551.5,53.1,553.5,855.9,553.7,896.9z"/>
	<path id="PageOutline" d="M136,1c61.6,0,139.2,4,230.7,11.9c92.9,8.1,175.3,11.1,185.1,11.5c0,36.4,2,822.6,2.2,871.8
		c-5.4-2.1-22.7-3-67.4-4.6c-33.1-1.2-74.4-2.7-119.7-5.9c-31.4-2.2-72.7-3.3-119.6-3.3c-56.2,0-118.6,1.7-167,4.6
		c-56.4,3.3-72.9,6.7-77.7,9V23.5c0-6.9,11.8-12.6,34-16.5C59.3,3,92.8,1,136,1 M136,0C49.5,0,1.5,8.1,1.5,23.5c0,14.2,0,875,0,875
		s0-0.1,0-0.2c0-7.7,128.2-14.8,245.7-14.8c43.7,0,85.9,1,119.6,3.3c103.1,7.2,187.7,5.9,188.2,11.5c-0.1-15.7-2.2-852.1-2.2-874.8
		c0,0-86.3-2.9-186-11.5C273.6,3.9,195.6,0,136,0L136,0z M554.9,898.2c0,0.2,0,0.2,0,0.2S554.9,898.4,554.9,898.2
		C554.9,898.2,554.9,898.2,554.9,898.2L554.9,898.2z"/>
	<g id="LabelName">
		<text transform="matrix(0.9215 -3.039865e-02 3.299853e-02 0.9995 63.397 227.8473)" class="st1 st2 st3">N</text>
		<text transform="matrix(0.9219 -1.600081e-02 1.730087e-02 0.9999 82.8898 227.2345)" class="st1 st2 st4">a</text>
		<text transform="matrix(0.922 -3.602384e-03 3.906973e-03 1 96.3561 226.9645)" class="st1 st2 st5">m</text>
		<text transform="matrix(0.922 8.073037e-03 -8.755629e-03 1 122.9006 226.894)" class="st1 st2 st6">e</text>
		<text transform="matrix(0.9219 1.509948e-02 -1.639944e-02 0.9999 137.1568 227.0251)" class="st1 st2 st7"> </text>
	</g>
	<g id="LineName">
		<text transform="matrix(0.9218 2.240000e-02 -2.430000e-02 0.9997 148.2566 227.1947)" class="st1 st2 st5">_</text>
		<text transform="matrix(0.9215 3.049864e-02 -3.299853e-02 0.9995 166.0965 227.6293)" class="st1 st2 st3">_</text>
		<text transform="matrix(0.9213 3.769862e-02 -4.089850e-02 0.9992 183.9122 228.2201)" class="st1 st2 st8">_</text>
		<text transform="matrix(0.921 4.419789e-02 -4.789771e-02 0.9989 201.7381 228.9498)" class="st1 st2 st9">_</text>
		<text transform="matrix(0.9207 5.010000e-02 -5.430000e-02 0.9985 219.5942 229.8055)" class="st1 st2 st5">_</text>
		<text transform="matrix(0.9204 5.550000e-02 -6.020000e-02 0.9982 237.4239 230.7763)" class="st1 st2 st5">_</text>
		<text transform="matrix(0.9201 6.050278e-02 -6.560301e-02 0.9978 255.2682 231.8529)" class="st1 st2 st10">_</text>
		<text transform="matrix(0.9197 6.510000e-02 -7.060000e-02 0.9975 273.083 233.0237)" class="st1 st2 st5">_</text>
		<text transform="matrix(0.9194 6.939781e-02 -7.519764e-02 0.9972 290.924 234.2869)" class="st1 st2 st11">_</text>
		<text transform="matrix(0.9191 7.340000e-02 -7.960000e-02 0.9968 308.7581 235.6332)" class="st1 st2 st5">_</text>
		<text transform="matrix(0.9188 7.710000e-02 -8.370000e-02 0.9965 326.5688 237.0557)" class="st1 st2 st5">_</text>
		<text transform="matrix(0.9159 0.1059 -0.1149 0.9934 344.0166 238.2222)" class="st1 st2 st5">_</text>
	</g>
	<g id="LabelSpecies">
		<text transform="matrix(0.9214 -3.360125e-02 3.640136e-02 0.9993 61.1039 144.2233)" class="st1 st2 st12">S</text>
		<text transform="matrix(0.9218 -1.930000e-02 2.090000e-02 0.9998 75.7919 143.6911)" class="st1 st2 st5">p</text>
		<text transform="matrix(0.922 -8.849367e-03 9.597598e-03 1 91.1589 143.3745)" class="st1 st2 st13">e</text>
		<text transform="matrix(0.922 -1.699715e-03 1.843429e-03 1 105.4373 143.2453)" class="st1 st2 st5">c</text>
		<text transform="matrix(0.922 -4.487694e-03 4.867137e-03 1 117.6994 143.2337)" class="st1 st2 st5">i</text>
		<text transform="matrix(0.922 -1.270000e-02 1.370000e-02 0.9999 124.8296 143.2158)" class="st1 st2 st5">e</text>
		<text transform="matrix(0.9218 -2.230000e-02 2.420000e-02 0.9997 139.0689 143.0083)" class="st1 st2 st5">s</text>
		<text transform="matrix(0.9217 -2.389915e-02 2.589908e-02 0.9997 150.8266 142.6957)" class="st1 st2 st8"> </text>
	</g>
	<g id="LineSpecies">
		<text transform="matrix(0.922 -3.997410e-03 4.335399e-03 1 161.8145 142.3147)" class="st1 st2 st5">_</text>
		<text transform="matrix(0.9214 3.440000e-02 -3.740000e-02 0.9993 179.3092 142.2493)" class="st1 st2 st5">_</text>
		<text transform="matrix(0.9202 5.840001e-02 -6.330000e-02 0.998 196.9333 142.9408)" class="st1 st2 st5">_</text>
		<text transform="matrix(0.9194 7.030000e-02 -7.620000e-02 0.9971 214.6732 144.0797)" class="st1 st2 st5">_</text>
		<text transform="matrix(0.9188 7.670251e-02 -8.320273e-02 0.9965 232.4806 145.446)" class="st1 st2 st14">_</text>
		<text transform="matrix(0.9193 7.120000e-02 -7.720000e-02 0.997 250.2229 146.9835)" class="st1 st2 st5">_</text>
		<text transform="matrix(0.9196 6.709692e-02 -7.269666e-02 0.9974 268.0398 148.3495)" class="st1 st2 st13">_</text>
		<text transform="matrix(0.9196 6.660000e-02 -7.230000e-02 0.9974 285.9249 149.6511)" class="st1 st2 st5">_</text>
		<text transform="matrix(0.9196 6.740000e-02 -7.310000e-02 0.9973 303.8043 150.9452)" class="st1 st2 st5">_</text>
		<text transform="matrix(0.9194 6.930000e-02 -7.510000e-02 0.9972 321.6602 152.2514)" class="st1 st2 st5">_</text>
		<text transform="matrix(0.9191 7.330254e-02 -7.950276e-02 0.9968 339.4838 153.5889)" class="st1 st2 st15">_</text>
		<text transform="matrix(0.918 8.610000e-02 -9.340000e-02 0.9956 357.2107 154.9709)" class="st1 st2 st5">_</text>
	</g>
	<g id="LabelLight">
		<text transform="matrix(0.9209 -4.660000e-02 5.050000e-02 0.9987 65.1678 312.7501)" class="st1 st2 st5">L</text>
		<text transform="matrix(0.9215 -3.279889e-02 3.559879e-02 0.9994 78.7725 312.0891)" class="st1 st2 st7">i</text>
		<text transform="matrix(0.9218 -2.090088e-02 2.270096e-02 0.9997 85.855 311.8127)" class="st1 st2 st16">g</text>
		<text transform="matrix(0.922 -7.425849e-03 8.053720e-03 1 100.6505 311.475)" class="st1 st2 st17">h</text>
		<text transform="matrix(0.922 1.581616e-03 -1.715344e-03 1 116.9265 311.3622)" class="st1 st2 st5">t</text>
		<text transform="matrix(0.922 7.786716e-03 -8.445098e-03 1 126.123 311.3752)" class="st1 st2 st8"> </text>
	</g>
	<g id="LineLight">
		<text transform="matrix(0.9219 1.579924e-02 -1.719918e-02 0.9999 137.247 311.4561)" class="st1 st2 st9">_</text>
		<text transform="matrix(0.9217 2.460107e-02 -2.670116e-02 0.9996 155.0444 311.762)" class="st1 st2 st16">_</text>
		<text transform="matrix(0.9215 3.240000e-02 -3.520000e-02 0.9994 172.8799 312.2395)" class="st1 st2 st5">_</text>
		<text transform="matrix(0.9212 3.940000e-02 -4.280000e-02 0.9991 190.7247 312.8692)" class="st1 st2 st5">_</text>
		<text transform="matrix(0.9209 4.579859e-02 -4.959847e-02 0.9988 208.5622 313.6325)" class="st1 st2 st11">_</text>
		<text transform="matrix(0.9206 5.150187e-02 -5.590203e-02 0.9984 226.3858 314.5187)" class="st1 st2 st18">_</text>
		<text transform="matrix(0.9203 5.680000e-02 -6.160000e-02 0.9981 244.2286 315.5186)" class="st1 st2 st5">_</text>
		<text transform="matrix(0.92 6.169752e-02 -6.689731e-02 0.9978 262.0457 316.6192)" class="st1 st2 st19">_</text>
		<text transform="matrix(0.9197 6.620000e-02 -7.180000e-02 0.9974 279.8835 317.8166)" class="st1 st2 st5">_</text>
		<text transform="matrix(0.9193 7.040000e-02 -7.640000e-02 0.9971 297.7041 319.0994)" class="st1 st2 st5">_</text>
		<text transform="matrix(0.919 7.440285e-02 -8.070309e-02 0.9967 315.544 320.4672)" class="st1 st2 st12">_</text>
		<text transform="matrix(0.9187 7.810000e-02 -8.470000e-02 0.9964 333.369 321.9097)" class="st1 st2 st5">_</text>
	</g>
	<g id="LabelSoil">
		<text transform="matrix(0.9209 -4.550000e-02 4.930000e-02 0.9988 67.7609 393.0249)" class="st1 st2 st5">S</text>
		<text transform="matrix(0.9216 -2.739887e-02 2.969878e-02 0.9996 82.3716 392.3067)" class="st1 st2 st20">o</text>
		<text transform="matrix(0.9219 -1.660063e-02 1.800068e-02 0.9998 97.098 391.8946)" class="st1 st2 st12">i</text>
		<text transform="matrix(0.922 -1.060036e-02 1.150039e-02 0.9999 104.2408 391.7663)" class="st1 st2 st15">l</text>
		<text transform="matrix(0.922 -3.772436e-03 4.091403e-03 1 110.9522 391.6821)" class="st1 st2 st5"> </text>
		<text transform="matrix(0.922 4.596895e-03 -4.985571e-03 1 122.0509 391.6296)" class="st1 st2 st5">T</text>
		<text transform="matrix(0.9219 1.320000e-02 -1.430000e-02 0.9999 136.3472 391.6993)" class="st1 st2 st5">y</text>
		<text transform="matrix(0.9218 2.110079e-02 -2.290086e-02 0.9997 151.8268 391.9219)" class="st1 st2 st12">p</text>
		<text transform="matrix(0.9216 2.800106e-02 -3.040115e-02 0.9995 167.2448 392.2782)" class="st1 st2 st12">e</text>
		<text id="LabelSoilType" transform="matrix(0.9214 3.340149e-02 -3.620161e-02 0.9993 181.5099 392.7168)" class="st1 st2 st21"> </text>
	</g>
	<g id="LineSoil">
		<text transform="matrix(0.9212 3.910000e-02 -4.240000e-02 0.9991 192.6621 393.1112)" class="st1 st2 st5">_</text>
		<text transform="matrix(0.9209 4.550000e-02 -4.930000e-02 0.9988 210.4982 393.869)" class="st1 st2 st5">_</text>
		<text transform="matrix(0.9206 5.119760e-02 -5.559740e-02 0.9985 228.3229 394.7488)" class="st1 st2 st13">_</text>
		<text transform="matrix(0.9203 5.660000e-02 -6.130000e-02 0.9981 246.1707 395.7431)" class="st1 st2 st5">_</text>
		<text transform="matrix(0.92 6.150000e-02 -6.670000e-02 0.9978 263.9926 396.8391)" class="st1 st2 st5">_</text>
		<text transform="matrix(0.9197 6.600221e-02 -7.160239e-02 0.9974 281.838 398.0308)" class="st1 st2 st14">_</text>
		<text transform="matrix(0.9194 7.020000e-02 -7.620000e-02 0.9971 299.6402 399.3095)" class="st1 st2 st5">_</text>
		<text transform="matrix(0.919 7.419664e-02 -8.049636e-02 0.9968 317.4907 400.6734)" class="st1 st2 st13">_</text>
		<text transform="matrix(0.9187 7.789999e-02 -8.450000e-02 0.9964 335.2979 402.1111)" class="st1 st2 st5">_</text>
		<text transform="matrix(0.9188 7.700000e-02 -8.350000e-02 0.9965 353.1224 403.6436)" class="st1 st2 st5">_</text>
		<text transform="matrix(0.9192 7.230001e-02 -7.840000e-02 0.9969 370.9229 405.1351)" class="st1 st2 st5">_</text>
		<text transform="matrix(0.9195 6.780000e-02 -7.350000e-02 0.9973 388.757 406.5377)" class="st1 st2 st5">_</text>
	</g>
	<g id="LabelFertilizer">
		<text transform="matrix(0.9216 -2.880000e-02 3.130000e-02 0.9995 67.7934 483.0788)" class="st1 st2 st5">F</text>
		<text transform="matrix(0.9219 -1.750000e-02 1.890000e-02 0.9998 82 482.6369)" class="st1 st2 st5">e</text>
		<text transform="matrix(0.922 -9.639398e-03 1.050047e-02 0.9999 96.2467 482.3765)" class="st1 st2 st21">r</text>
		<text transform="matrix(0.922 -4.457136e-03 4.833995e-03 1 107.2112 482.2646)" class="st1 st2 st5">t</text>
		<text transform="matrix(0.922 -1.457295e-03 1.580513e-03 1 116.504 482.2246)" class="st1 st2 st5">i</text>
		<text transform="matrix(0.922 -1.559878e-03 1.691769e-03 1 123.7074 482.2195)" class="st1 st2 st5">l</text>
		<text transform="matrix(0.922 -3.136290e-03 3.401469e-03 1 130.4533 482.2085)" class="st1 st2 st5">i</text>
		<text transform="matrix(0.922 -4.461115e-03 4.838311e-03 1 137.6677 482.1844)" class="st1 st2 st5">z</text>
		<text transform="matrix(0.922 -4.866055e-03 5.277489e-03 1 150.0785 482.1239)" class="st1 st2 st5">e</text>
		<text transform="matrix(0.922 -4.065639e-03 4.409398e-03 1 164.4327 482.0463)" class="st1 st2 st5">r</text>
		<text transform="matrix(0.922 -2.570449e-03 2.787786e-03 1 175.4657 481.9979)" class="st1 st2 st5"> </text>
		<text transform="matrix(0.922 -8.296307e-05 8.997776e-05 1 186.604 481.9632)" class="st1 st2 st5">T</text>
		<text transform="matrix(0.922 3.708445e-03 -4.022001e-03 1 200.977 481.9587)" class="st1 st2 st5">y</text>
		<text transform="matrix(0.922 8.503647e-03 -9.222647e-03 1 216.4722 482.0205)" class="st1 st2 st22">p</text>
		<text transform="matrix(0.9219 1.390000e-02 -1.510000e-02 0.9999 231.923 482.1631)" class="st1 st2 st5">e</text>
		<text transform="matrix(0.9218 1.900000e-02 -2.060000e-02 0.9998 246.224 482.382)" class="st1 st2 st5"> </text>
	</g>
	<g id="LineFertilizer">
		<text transform="matrix(0.9217 2.530000e-02 -2.750000e-02 0.9996 257.3314 482.5979)" class="st1 st2 st5">_</text>
		<text transform="matrix(0.9214 3.390000e-02 -3.680000e-02 0.9993 275.1456 483.0862)" class="st1 st2 st5">_</text>
		<text transform="matrix(0.921 4.330000e-02 -4.700000e-02 0.9989 292.9584 483.7399)" class="st1 st2 st5">_</text>
		<text transform="matrix(0.9205 5.340000e-02 -5.790000e-02 0.9983 310.7529 484.5747)" class="st1 st2 st5">_</text>
		<text transform="matrix(0.9198 6.429750e-02 -6.979728e-02 0.9976 328.5183 485.6044)" class="st1 st2 st19">_</text>
		<text transform="matrix(0.9189 7.590000e-02 -8.240000e-02 0.9966 346.2502 486.8411)" class="st1 st2 st5">_</text>
		<text transform="matrix(0.9197 6.510000e-02 -7.060000e-02 0.9975 364.5396 488.2866)" class="st1 st2 st5">_</text>
		<text transform="matrix(0.9193 7.120000e-02 -7.720000e-02 0.997 382.3408 489.5464)" class="st1 st2 st5">_</text>
		<text transform="matrix(0.9188 7.740001e-02 -8.390000e-02 0.9965 400.1456 490.9243)" class="st1 st2 st5">_</text>
		<text transform="matrix(0.9182 8.370000e-02 -9.070000e-02 0.9959 417.9279 492.4215)" class="st1 st2 st5">_</text>
		<text transform="matrix(0.9176 9.010000e-02 -9.770000e-02 0.9952 435.7142 494.0406)" class="st1 st2 st5">_</text>
		<text transform="matrix(0.917 9.670000e-02 -0.1049 0.9945 453.4641 495.7826)" class="st1 st2 st5">_</text>
	</g>
	<g id="Notes">
		<g id="LabelNotes">
			<text transform="matrix(0.9212 -3.960000e-02 4.300000e-02 0.9991 65.3996 569.0299)" class="st1 st2 st5">N</text>
			<text transform="matrix(0.9218 -2.090088e-02 2.270096e-02 0.9997 84.8226 568.2262)" class="st1 st2 st16">o</text>
			<text transform="matrix(0.922 -1.070035e-02 1.160038e-02 0.9999 99.5519 567.9087)" class="st1 st2 st14">t</text>
			<text transform="matrix(0.922 -2.318419e-03 2.514446e-03 1 108.7785 567.7923)" class="st1 st2 st5">e</text>
			<text transform="matrix(0.922 -3.078962e-03 3.339295e-03 1 123.0439 567.772)" class="st1 st2 st5">s</text>
			<text transform="matrix(0.922 -6.056359e-03 6.568437e-03 1 134.8188 567.7308)" class="st1 st2 st5"> </text>
		</g>
		<g id="LInes2Notes">
			<path class="st23" d="M-0.2,661.7c0-8.6,1.7-22.5,118.3-22.5c66.9,0,130.3-2.6,229,1.7c95.8,3.7,178.5,11.8,185.6,12.1"/>
			<text transform="matrix(0.9211 -4.070000e-02 4.420000e-02 0.999 64.0051 640.5044)" class="st1 st2 st5">_</text>
			<text transform="matrix(0.9218 -2.110079e-02 2.290086e-02 0.9997 81.71 639.731)" class="st1 st2 st12">_</text>
			<text transform="matrix(0.922 -6.518707e-03 7.069876e-03 1 99.451 639.3297)" class="st1 st2 st5">_</text>
			<text transform="matrix(0.922 -2.686360e-03 2.913497e-03 1 117.3123 639.2466)" class="st1 st2 st5">_</text>
			<text transform="matrix(0.922 -7.105443e-03 7.706222e-03 1 135.1646 639.1901)" class="st1 st2 st5">_</text>
			<text transform="matrix(0.922 -9.348684e-03 1.010050e-02 0.9999 153.0466 639.0498)" class="st1 st2 st24">_</text>
			<text transform="matrix(0.922 -9.412023e-03 1.020049e-02 0.9999 170.9637 638.8649)" class="st1 st2 st25">_</text>
			<text transform="matrix(0.922 -7.522791e-03 8.158857e-03 1 188.86 638.6804)" class="st1 st2 st17">_</text>
			<text transform="matrix(0.922 -4.018567e-03 4.358345e-03 1 206.7499 638.5298)" class="st1 st2 st5">_</text>
			<text transform="matrix(0.922 7.318631e-04 -7.937436e-04 1 224.6117 638.4508)" class="st1 st2 st5">_</text>
			<text transform="matrix(0.922 6.351509e-03 -6.888542e-03 1 242.4931 638.4631)" class="st1 st2 st5">_</text>
			<text transform="matrix(0.922 1.250000e-02 -1.350000e-02 0.9999 260.3393 638.5854)" class="st1 st2 st5">_</text>
			<text transform="matrix(0.9218 1.890000e-02 -2.050000e-02 0.9998 278.1801 638.8275)" class="st1 st2 st5">_</text>
			<text transform="matrix(0.9217 2.540000e-02 -2.750000e-02 0.9996 296.0279 639.1926)" class="st1 st2 st5">_</text>
			<text transform="matrix(0.9215 3.180000e-02 -3.450000e-02 0.9994 313.8839 639.6838)" class="st1 st2 st5">_</text>
			<text transform="matrix(0.9213 3.799814e-02 -4.119798e-02 0.9992 331.7103 640.2989)" class="st1 st2 st26">_</text>
			<text transform="matrix(0.9212 3.930000e-02 -4.260000e-02 0.9991 349.5714 641.0241)" class="st1 st2 st5">_</text>
			<text transform="matrix(0.921 4.470000e-02 -4.850000e-02 0.9988 367.4098 641.785)" class="st1 st2 st5">_</text>
			<text transform="matrix(0.9207 4.980204e-02 -5.400221e-02 0.9985 385.2703 642.6529)" class="st1 st2 st27">_</text>
			<text transform="matrix(0.9204 5.460252e-02 -5.920273e-02 0.9982 403.1047 643.6174)" class="st1 st2 st10">_</text>
			<text transform="matrix(0.9201 5.900294e-02 -6.400319e-02 0.9979 420.9261 644.6738)" class="st1 st2 st24">_</text>
			<text transform="matrix(0.9199 6.330235e-02 -6.870256e-02 0.9976 438.7648 645.8197)" class="st1 st2 st12">_</text>
			<text transform="matrix(0.9196 6.740000e-02 -7.310000e-02 0.9973 456.5975 647.0478)" class="st1 st2 st5">_</text>
			<text transform="matrix(0.9193 7.120000e-02 -7.730000e-02 0.997 474.4337 648.3557)" class="st1 st2 st5">_</text>
			<text transform="matrix(0.919 7.470000e-02 -8.100000e-02 0.9967 492.2836 649.7393)" class="st1 st2 st5">_</text>
			<path class="st23" d="M0,732.7c0-8.6-0.3-26.8,116.3-26.8c66.9,0,130.3-2.6,229,1.7c95.8,3.7,178.5,11.8,185.6,12"/>
			<text transform="matrix(0.9205 -5.300271e-02 5.740293e-02 0.9984 62.317 707.5959)" class="st1 st2 st4">_</text>
			<text transform="matrix(0.9216 -2.749871e-02 2.989859e-02 0.9996 79.9075 706.5923)" class="st1 st2 st9">_</text>
			<text transform="matrix(0.922 -8.538907e-03 9.260890e-03 1 97.6086 706.0701)" class="st1 st2 st22">_</text>
			<text transform="matrix(0.922 -2.686340e-03 2.913476e-03 1 115.441 705.9568)" class="st1 st2 st5">_</text>
			<text transform="matrix(0.922 -7.105494e-03 7.706278e-03 1 133.2934 705.9005)" class="st1 st2 st5">_</text>
			<text transform="matrix(0.922 -9.348684e-03 1.010050e-02 0.9999 151.2003 705.7604)" class="st1 st2 st24">_</text>
			<text transform="matrix(0.922 -9.412023e-03 1.020049e-02 0.9999 169.1167 705.5746)" class="st1 st2 st25">_</text>
			<text transform="matrix(0.922 -7.522791e-03 8.158857e-03 1 187.0131 705.3901)" class="st1 st2 st17">_</text>
			<text transform="matrix(0.922 -4.018567e-03 4.358345e-03 1 204.9029 705.2403)" class="st1 st2 st5">_</text>
			<text transform="matrix(0.922 7.318631e-04 -7.937436e-04 1 222.7648 705.1613)" class="st1 st2 st5">_</text>
			<text transform="matrix(0.922 6.340379e-03 -6.876471e-03 1 240.6186 705.1743)" class="st1 st2 st5">_</text>
			<text transform="matrix(0.922 1.250000e-02 -1.350000e-02 0.9999 258.4634 705.296)" class="st1 st2 st5">_</text>
			<text transform="matrix(0.9218 1.890000e-02 -2.050000e-02 0.9998 276.3332 705.5377)" class="st1 st2 st5">_</text>
			<text transform="matrix(0.9217 2.540000e-02 -2.750000e-02 0.9996 294.1809 705.9028)" class="st1 st2 st5">_</text>
			<text transform="matrix(0.9215 3.170000e-02 -3.440000e-02 0.9994 312.0036 706.3932)" class="st1 st2 st5">_</text>
			<text transform="matrix(0.9213 3.799814e-02 -4.119798e-02 0.9992 329.8628 707.0089)" class="st1 st2 st26">_</text>
			<text transform="matrix(0.9212 3.930000e-02 -4.270000e-02 0.9991 347.6909 707.7327)" class="st1 st2 st5">_</text>
			<text transform="matrix(0.921 4.470000e-02 -4.850000e-02 0.9988 365.5471 708.4957)" class="st1 st2 st5">_</text>
			<text transform="matrix(0.9207 4.980204e-02 -5.400221e-02 0.9985 383.3897 709.3611)" class="st1 st2 st27">_</text>
			<text transform="matrix(0.9204 5.450251e-02 -5.920273e-02 0.9982 401.2266 710.3258)" class="st1 st2 st10">_</text>
			<text transform="matrix(0.9201 5.900294e-02 -6.400319e-02 0.9979 419.0793 711.3842)" class="st1 st2 st24">_</text>
			<text transform="matrix(0.9199 6.330235e-02 -6.870256e-02 0.9976 436.9185 712.53)" class="st1 st2 st12">_</text>
			<text transform="matrix(0.9196 6.740000e-02 -7.310000e-02 0.9973 454.7511 713.7581)" class="st1 st2 st5">_</text>
			<text transform="matrix(0.9193 7.120000e-02 -7.730000e-02 0.997 472.5869 715.0655)" class="st1 st2 st5">_</text>
			<text transform="matrix(0.919 7.460000e-02 -8.090000e-02 0.9967 490.3986 716.4465)" class="st1 st2 st5">_</text>
			<path class="st23" d="M2,796.7c0-8.6-2.7-20,113.8-20c66.9,0,130.3-2.6,229,1.7c95.8,3.7,178.5,11.8,185.6,12"/>
			<text transform="matrix(0.9214 -3.410000e-02 3.700000e-02 0.9993 62.1262 777.7471)" class="st1 st2 st5">_</text>
			<text transform="matrix(0.9219 -1.730000e-02 1.870000e-02 0.9998 79.8245 777.0986)" class="st1 st2 st5">_</text>
			<text transform="matrix(0.922 -5.091423e-03 5.521913e-03 1 97.6105 776.7722)" class="st1 st2 st5">_</text>
			<text transform="matrix(0.922 -2.835266e-03 3.074994e-03 1 115.4956 776.7112)" class="st1 st2 st5">_</text>
			<text transform="matrix(0.922 -7.199153e-03 7.807855e-03 1 133.3187 776.6516)" class="st1 st2 st5">_</text>
			<text transform="matrix(0.922 -9.385306e-03 1.020049e-02 0.9999 151.229 776.5096)" class="st1 st2 st25">_</text>
			<text transform="matrix(0.922 -9.379672e-03 1.020049e-02 0.9999 169.1553 776.323)" class="st1 st2 st25">_</text>
			<text transform="matrix(0.922 -7.452489e-03 8.082612e-03 1 187.0405 776.1393)" class="st1 st2 st17">_</text>
			<text transform="matrix(0.922 -3.890218e-03 4.219144e-03 1 204.9469 775.9923)" class="st1 st2 st5">_</text>
			<text transform="matrix(0.922 8.868182e-04 -9.618005e-04 1 222.8022 775.9135)" class="st1 st2 st5">_</text>
			<text transform="matrix(0.922 6.516589e-03 -7.067580e-03 1 240.6745 775.9307)" class="st1 st2 st5">_</text>
			<text transform="matrix(0.922 1.270000e-02 -1.380000e-02 0.9999 258.5148 776.0568)" class="st1 st2 st5">_</text>
			<text transform="matrix(0.9218 1.910000e-02 -2.070000e-02 0.9998 276.3465 776.3)" class="st1 st2 st5">_</text>
			<text transform="matrix(0.9217 2.560000e-02 -2.770000e-02 0.9996 294.2161 776.6705)" class="st1 st2 st5">_</text>
			<text transform="matrix(0.9215 3.190000e-02 -3.460000e-02 0.9994 312.0621 777.1651)" class="st1 st2 st5">_</text>
			<text transform="matrix(0.9213 3.810162e-02 -4.140176e-02 0.9991 329.8924 777.7836)" class="st1 st2 st16">_</text>
			<text transform="matrix(0.9212 3.950000e-02 -4.280000e-02 0.9991 347.7569 778.5086)" class="st1 st2 st5">_</text>
			<text transform="matrix(0.9209 4.490000e-02 -4.870000e-02 0.9988 365.6021 779.2742)" class="st1 st2 st5">_</text>
			<text transform="matrix(0.9207 4.990177e-02 -5.410192e-02 0.9985 383.4257 780.1429)" class="st1 st2 st18">_</text>
			<text transform="matrix(0.9204 5.470219e-02 -5.930238e-02 0.9982 401.2753 781.1122)" class="st1 st2 st28">_</text>
			<text transform="matrix(0.9201 5.920219e-02 -6.420238e-02 0.9979 419.1329 782.1724)" class="st1 st2 st18">_</text>
			<text transform="matrix(0.9199 6.350000e-02 -6.880000e-02 0.9976 436.9642 783.3191)" class="st1 st2 st5">_</text>
			<text transform="matrix(0.9196 6.750000e-02 -7.320000e-02 0.9973 454.7774 784.5497)" class="st1 st2 st5">_</text>
			<text transform="matrix(0.9193 7.130000e-02 -7.740000e-02 0.997 472.6238 785.8593)" class="st1 st2 st5">_</text>
			<text transform="matrix(0.919 7.470000e-02 -8.100000e-02 0.9967 490.4393 787.244)" class="st1 st2 st5">_</text>
			<path id="_x31_Lines2TPNotes" class="st29" d="M68.7,642.3c13.9-2.3,194.3-1.4,214.1-1.4c23.2,0.1,217.7,9,227.8,13.3"/>
			<path id="_x32_Lines2TPNotes" class="st29" d="M66.2,709.1c13.9-2.3,194.3-1.4,214.1-1.4c23.2,0.1,217.7,9,227.8,13.3"/>
			<path id="_x33_LInes2TPNotes" class="st29" d="M65.3,780.8c13.9-2.3,194.3-1.4,214.1-1.4c23.2,0.1,217.7,9,227.8,13.3"/>
		</g>
		<g id="Lines1Notes">
			<text transform="matrix(0.922 -8.561722e-03 9.285633e-03 1 145.994 567.6608)" class="st1 st2 st22">_</text>
			<text transform="matrix(0.922 -9.631761e-03 1.040048e-02 0.9999 163.905 567.4906)" class="st1 st2 st10">_</text>
			<text transform="matrix(0.922 -8.645475e-03 9.376466e-03 1 181.8312 567.3004)" class="st1 st2 st3">_</text>
			<text transform="matrix(0.922 -5.850372e-03 6.345033e-03 1 199.7016 567.1305)" class="st1 st2 st5">_</text>
			<text transform="matrix(0.922 -1.636314e-03 1.774667e-03 1 217.5968 567.0153)" class="st1 st2 st5">_</text>
			<text transform="matrix(0.922 3.607658e-03 -3.912692e-03 1 235.4428 566.9814)" class="st1 st2 st5">_</text>
			<text transform="matrix(0.922 9.550245e-03 -1.040048e-02 0.9999 253.3139 567.0496)" class="st1 st2 st10">_</text>
			<text transform="matrix(0.9219 1.589924e-02 -1.719918e-02 0.9999 271.151 567.235)" class="st1 st2 st9">_</text>
			<text transform="matrix(0.9218 2.230000e-02 -2.420000e-02 0.9997 289.0042 567.5394)" class="st1 st2 st5">_</text>
			<text transform="matrix(0.9216 2.880000e-02 -3.120000e-02 0.9995 306.8497 567.9735)" class="st1 st2 st5">_</text>
			<text transform="matrix(0.9214 3.510000e-02 -3.800000e-02 0.9993 324.6852 568.5296)" class="st1 st2 st5">_</text>
			<text transform="matrix(0.9213 3.660000e-02 -3.970000e-02 0.9992 342.5345 569.2385)" class="st1 st2 st5">_</text>
			<text transform="matrix(0.9211 4.219792e-02 -4.579774e-02 0.999 360.3744 569.9475)" class="st1 st2 st26">_</text>
			<text transform="matrix(0.9208 4.740000e-02 -5.140000e-02 0.9987 378.2269 570.767)" class="st1 st2 st5">_</text>
			<text transform="matrix(0.9206 5.230000e-02 -5.680000e-02 0.9984 396.087 571.6879)" class="st1 st2 st5">_</text>
			<text transform="matrix(0.9203 5.700000e-02 -6.180000e-02 0.9981 413.9071 572.7017)" class="st1 st2 st5">_</text>
			<text transform="matrix(0.92 6.130000e-02 -6.650000e-02 0.9978 431.7609 573.8063)" class="st1 st2 st5">_</text>
			<text transform="matrix(0.9197 6.549798e-02 -7.109781e-02 0.9975 449.5901 574.9951)" class="st1 st2 st11">_</text>
			<text transform="matrix(0.9194 6.949677e-02 -7.539649e-02 0.9972 467.4223 576.2657)" class="st1 st2 st13">_</text>
			<text transform="matrix(0.9191 7.309641e-02 -7.929611e-02 0.9969 485.2501 577.613)" class="st1 st2 st26">_</text>
			<path id="Line1TPNotes" class="st29" d="M148.6,569.8c7.2-0.9,80.7-1.7,160.8,1c90,3,180.3,9.3,191.4,11"/>
		</g>
	</g>
</g>
<text transform="matrix(1 0 0 1 150.8267 142.6958)" class="st1 st2 st30">:</text>
<text transform="matrix(1 0 0 1 139.0687 226.8939)" class="st1 st2 st30">:</text>
<text transform="matrix(1 0 0 1 126.123 311.3557)" class="st1 st2 st30">:</text>
<text transform="matrix(1 0 0 1 181.5096 392.7168)" class="st1 st2 st30">:</text>
<text transform="matrix(1 0 0 1 246.2234 482.3818)" class="st1 st2 st30">:</text>
<text transform="matrix(1 0 0 1 136.347 566.9814)" class="st1 st2 st30">:</text>
</svg>
