<?xml version="1.0" encoding="utf-8"?>
<!-- Generator: Adobe Illustrator 27.4.0, SVG Export Plug-In . SVG Version: 6.00 Build 0)  -->
<svg version="1.1" id="Book_Layer" xmlns="http://www.w3.org/2000/svg" xmlns:xlink="http://www.w3.org/1999/xlink" x="0px" y="0px"
	 viewBox="0 0 1190.91 955.8" style="enable-background:new 0 0 1190.91 955.8;" xml:space="preserve">
<style type="text/css">
	.st0{fill:#FFD773;}
	.st1{fill:#CC9966;}
	.st2{fill:#E22020;stroke:#000000;stroke-miterlimit:10;}
	.st3{fill:#E22020;}
	.st4{fill-rule:evenodd;clip-rule:evenodd;fill:#FFD773;stroke:#000000;stroke-miterlimit:10;}
	.st5{fill:#EAD1A0;}
	.st6{fill:#F9EAC7;}
	.st7{fill:#FFF1CF;}
</style>
<g id="Spine_Back_Page">
	<path class="st0" d="M619.6,955.3c-1.02,0-2.06-0.01-3.12-0.02c-1.11-0.01-2.23-0.02-3.37-0.02h-35.3c-1.14,0-2.27,0.01-3.37,0.02
		c-1.06,0.01-2.11,0.02-3.12,0.02c-5.11,0-10.39-0.2-14-2.57c-3.73-2.45-5.47-7.02-5.47-14.39V102.07
		c0-18.94,11.65-34.34,25.97-34.34h35.3c14.32,0,25.97,15.41,25.97,34.34v836.27C639.08,954.09,631.01,955.3,619.6,955.3z"/>
	<path d="M613.11,68.23c14.05,0,25.47,15.18,25.47,33.84v836.27c0,15.32-7.51,16.46-18.98,16.46c-1.02,0-2.06-0.01-3.12-0.02
		c-1.11-0.01-2.23-0.02-3.38-0.02h-35.3c-1.14,0-2.27,0.01-3.38,0.02c-1.06,0.01-2.1,0.02-3.12,0.02
		c-11.46,0-18.98-1.15-18.98-16.46V102.07c0-18.66,11.43-33.84,25.47-33.84H613.11 M613.11,67.23h-35.3
		c-14.56,0-26.47,15.68-26.47,34.84v836.27c0,16.22,8.53,17.46,19.98,17.46c2.08,0,4.26-0.04,6.5-0.04h35.3
		c2.24,0,4.42,0.04,6.5,0.04c11.45,0,19.98-1.25,19.98-17.46V102.07C639.58,82.91,627.67,67.23,613.11,67.23L613.11,67.23z"/>
</g>
<g id="Spine_Shadow">
	<path class="st1" d="M554.52,932.18c-6.34,0-11.5-5.16-11.5-11.5v-58.72c0-6.34,5.16-11.5,11.5-11.5h83.49
		c6.34,0,11.5,5.16,11.5,11.5v58.72c0,6.34-5.16,11.5-11.5,11.5H554.52z"/>
	<path class="st1" d="M638.01,850.96c6.07,0,11,4.93,11,11v58.71c0,6.07-4.93,11-11,11h-83.49c-6.07,0-11-4.93-11-11v-58.71
		c0-6.07,4.93-11,11-11H638.01 M638.01,849.96h-83.49c-6.6,0-12,5.4-12,12v58.71c0,6.6,5.4,12,12,12h83.49c6.6,0,12-5.4,12-12
		v-58.71C650.01,855.36,644.61,849.96,638.01,849.96L638.01,849.96z"/>
</g>
<path id="Spine_Back" class="st2" d="M555.2,937.69c7.14,4.36,17.28,4.36,17.28,4.36h53.92c3.7-0.23,9.54-3.13,9.54-3.13
	l-0.35,11.47c0,0,0.12,3.89-7.65,4.58c-7.77,0.69-52.24-0.35-55.19-0.12c-2.96,0.23-17.01,0.84-17.55-6.68
	C554.68,940.94,555.2,937.69,555.2,937.69z"/>
<g id="Left_Side">
	<g id="L_Back">
		<polygon class="st3" points="0.5,41.06 555.46,38.13 555.46,951.76 0.5,954.69 		"/>
		<path d="M554.96,38.63v912.63L1,954.19V41.56L554.96,38.63 M555.96,37.62L0,40.56V955.2l555.96-2.94V37.62L555.96,37.62z"/>
	</g>
	<rect id="L_Back_Page" x="12.13" y="57.06" class="st4" width="542.56" height="879.82"/>
	<g id="LB_Shadow">
		<polygon class="st1" points="33.88,922.3 31.64,915.25 553.66,915.25 553.66,926.16 		"/>
		<path class="st1" d="M553.16,915.75v9.91l-518.91-3.85l-1.93-6.05H553.16 M554.16,914.75H30.96l2.56,8.05l520.64,3.86V914.75
			L554.16,914.75z"/>
	</g>
	<g id="LB_Middle_Pages">
		<polygon class="st5" points="31.76,914.62 54.19,868.89 595.17,872.22 595.43,898.02 583.2,917.6 		"/>
		<path d="M54.5,869.39l540.18,3.32l0.25,25.17l-12.01,19.22l-550.36-2.98L54.5,869.39 M53.88,868.39l-22.92,46.73l552.51,2.99
			l12.46-19.94l-0.26-26.44L53.88,868.39L53.88,868.39z"/>
	</g>
	<g id="LL_Middle_Pages">
		<path class="st6" d="M31.46,914.61l0.19-839.65l14.19-47.88l2.34,861.92l-15.73,25.62C32.13,914.62,31.8,914.62,31.46,914.61z"/>
		<path d="M45.35,30.5l2.33,858.36l-15.5,25.26c-0.07,0-0.14,0-0.21,0l0.19-839.08L45.35,30.5 M46.33,23.67L31.15,74.89
			l-0.19,840.22c0.63,0,1.2,0.01,1.77,0.02l0-0.01l15.95-25.98L46.33,23.67L46.33,23.67z"/>
	</g>
	<g id="L_Top_Page">
		<path class="st7" d="M42.54,896.2c0.15-40.94,2.18-843.04,2.21-872.28c7.12-0.25,90.86-3.29,185.56-11.48
			C321.82,4.52,399.49,0.5,461.14,0.5c116.61,0,134.02,14.37,134.02,22.94v872.52c-1.82-1.15-6.93-2.74-21.31-4.55
			c-13.5-1.7-33.21-3.34-56.98-4.74c-48.41-2.85-110.85-4.55-167.02-4.55c-46.89,0-88.26,1.15-119.63,3.33
			c-45.39,3.16-86.65,4.65-119.8,5.85C67.62,892.84,47.11,893.69,42.54,896.2z"/>
		<path d="M461.15,1c43.15,0,76.63,2.01,99.51,5.96c22.24,3.85,34,9.54,34,16.47v871.73c-4.83-2.32-21.35-5.69-77.76-9.01
			c-48.42-2.85-110.87-4.55-167.05-4.55c-46.9,0-88.28,1.15-119.67,3.34c-45.38,3.16-86.63,4.65-119.78,5.85
			c-44.65,1.62-62.03,2.48-67.38,4.62c0.17-49.25,2.16-834.59,2.2-871c9.8-0.35,92.17-3.43,185.11-11.47
			C321.85,5.02,399.5,1,461.15,1L461.15,1 M461.14,0c-59.7,0-137.72,3.88-230.88,11.94c-99.65,8.62-186.02,11.5-186.02,11.5
			c0,22.6-2.14,858.31-2.21,873.95c0.47-5.59,85.05-4.28,188.23-11.45c33.62-2.34,75.87-3.33,119.6-3.33
			c117.56,0,245.8,7.2,245.8,14.83c0-16.78,0-859.91,0-874C595.67,8.13,547.63,0,461.14,0L461.14,0z M42.03,897.39
			c0,0.02,0,0.03,0,0.05c0,0.12,0,0.18,0,0.18S42.03,897.54,42.03,897.39L42.03,897.39z M595.67,897.44c0,0.17,0,0.25,0,0.25
			S595.67,897.61,595.67,897.44L595.67,897.44z"/>
	</g>
</g>
<g id="Right_Side">
	<g id="R_Back">
		<polygon class="st3" points="635.46,951.76 635.46,38.13 1190.41,41.06 1190.41,954.69 		"/>
		<path d="M635.96,38.63l553.96,2.93v912.63l-553.96-2.93V38.63 M634.96,37.62v914.63l555.96,2.94V40.56L634.96,37.62L634.96,37.62z
			"/>
	</g>
	
		<rect id="R_Back_Page" x="636.7" y="58.38" transform="matrix(-1 -5.876601e-11 5.876601e-11 -1 1816.7452 996.5835)" class="st4" width="543.35" height="879.82"/>
	<g id="RB_Shadow">
		<polygon class="st1" points="637.78,916.48 1160.04,916.48 1155.51,922.72 637.72,927.39 		"/>
		<path class="st1" d="M1159.06,916.98l-3.8,5.24l-517.04,4.66l0.05-9.9H1159.06 M1161.02,915.98H637.28l-0.07,11.91l518.56-4.68
			L1161.02,915.98L1161.02,915.98z"/>
	</g>
	<g id="RB_Middle_Pages">
		<polygon class="st5" points="596.43,898.03 596.17,873.53 1137.93,870.2 1160.4,915.93 608.17,918.92 		"/>
		<path d="M1137.62,870.7l21.98,44.73l-551.13,2.98l-11.54-20.52l-0.25-23.87L1137.62,870.7 M1138.24,869.7l-542.57,3.33l0.26,25.13
			l11.95,21.26l553.32-2.99L1138.24,869.7L1138.24,869.7z"/>
	</g>
	<g id="RR_Middle_Pages">
		<path class="st6" d="M1143.96,890.32l3.74-860.96l12.81,46.91l0.19,839.66c-0.34,0-0.67,0.01-0.99,0.02L1143.96,890.32z"/>
		<path d="M1148.18,33.03L1160,76.34l0.19,839.09c-0.07,0-0.14,0-0.22,0l-15.52-25.26L1148.18,33.03 M1147.21,25.69l-3.76,864.77
			l15.97,25.98l0,0.01c0.57-0.01,1.14-0.02,1.77-0.02L1161,76.21L1147.21,25.69L1147.21,25.69z"/>
	</g>
	<g id="R_Top_Page">
		<path class="st7" d="M1149.6,897.51c-4.58-2.5-25.11-3.35-68-4.9c-33.2-1.2-74.51-2.7-119.97-5.85
			c-31.42-2.18-72.84-3.33-119.8-3.33c-56.25,0-118.78,1.7-167.26,4.55c-23.8,1.4-43.54,3.04-57.06,4.74
			c-14.41,1.82-19.53,3.4-21.34,4.55V24.75c0-8.57,17.44-22.94,134.22-22.94c61.75,0,139.52,4.02,231.17,11.94
			c94.85,8.2,178.71,11.24,185.83,11.48C1147.42,54.48,1149.45,856.57,1149.6,897.51z"/>
		<path d="M730.39,2.31c61.73,0,139.49,4.02,231.13,11.93c93.08,8.04,175.58,11.12,185.38,11.47c0.05,36.42,2.04,821.85,2.21,871.01
			c-5.36-2.13-22.76-3-67.48-4.62c-33.19-1.2-74.5-2.7-119.95-5.85c-31.43-2.18-72.87-3.34-119.84-3.34
			c-56.26,0-118.8,1.7-167.29,4.55c-56.51,3.32-73.04,6.69-77.87,9.01V24.75c0-6.93,11.77-12.63,34.05-16.47
			C653.64,4.32,687.17,2.31,730.39,2.31 M730.39,1.31c-86.61,0-134.72,8.13-134.72,23.44c0,14.23,0,874.25,0,874.25s0-0.08,0-0.25
			c0-7.64,128.43-14.83,246.16-14.83c43.79,0,86.1,1,119.77,3.33c103.34,7.18,188.03,5.87,188.51,11.45
			c-0.07-15.64-2.22-851.36-2.22-873.95c0,0-86.49-2.88-186.29-11.5C868.3,5.19,790.17,1.31,730.39,1.31L730.39,1.31z
			 M1150.11,898.71c0,0.15,0,0.22,0,0.22c0,0,0-0.06,0-0.18C1150.11,898.74,1150.11,898.72,1150.11,898.71L1150.11,898.71z"/>
	</g>
</g>
</svg>
