<?xml version="1.0" encoding="utf-8"?>
<!-- Generator: Adobe Illustrator 27.4.0, SVG Export Plug-In . SVG Version: 6.00 Build 0)  -->
<svg version="1.1" id="Layer_1" xmlns="http://www.w3.org/2000/svg" xmlns:xlink="http://www.w3.org/1999/xlink" x="0px" y="0px"
	 viewBox="0 0 376 278" style="enable-background:new 0 0 376 278;" xml:space="preserve">
<style type="text/css">
	.st0{fill:#CC6633;}
	.st1{fill:#993300;}
	.st2{fill:#990000;}
	.st3{fill:#FF6600;}
	.st4{fill:#FF9966;}
</style>
<g>
	<g>
		<rect x="52.5" y="46.5" class="st0" width="24" height="231"/>
		<path class="st1" d="M76,47v230H53V47H76 M77,46H52v232h25V46L77,46z"/>
	</g>
	<g>
		<rect x="302.5" y="46.5" class="st0" width="24" height="231"/>
		<path class="st1" d="M326,47v230h-23V47H326 M327,46h-25v232h25V46L327,46z"/>
	</g>
	<g>
		<rect x="0.5" y="0.5" class="st2" width="375" height="45"/>
		<path class="st3" d="M375,1v44H1V1H375 M376,0H0v46h376V0L376,0z"/>
	</g>
	<g>
		<circle class="st3" cx="64.5" cy="14.5" r="3"/>
		<path class="st3" d="M64.5,12c1.38,0,2.5,1.12,2.5,2.5S65.88,17,64.5,17S62,15.88,62,14.5S63.12,12,64.5,12 M64.5,11
			c-1.93,0-3.5,1.57-3.5,3.5s1.57,3.5,3.5,3.5s3.5-1.57,3.5-3.5S66.43,11,64.5,11L64.5,11z"/>
	</g>
	<g>
		<circle class="st4" cx="64.5" cy="14.5" r="2.22"/>
		<path class="st4" d="M64.5,12.78c0.95,0,1.72,0.77,1.72,1.72s-0.77,1.72-1.72,1.72s-1.72-0.77-1.72-1.72S63.55,12.78,64.5,12.78
			 M64.5,11.78c-1.5,0-2.72,1.22-2.72,2.72s1.22,2.72,2.72,2.72s2.72-1.22,2.72-2.72S66,11.78,64.5,11.78L64.5,11.78z"/>
	</g>
	<g>
		<circle class="st3" cx="64.85" cy="33.26" r="3"/>
		<path class="st3" d="M64.85,30.76c1.38,0,2.5,1.12,2.5,2.5s-1.12,2.5-2.5,2.5s-2.5-1.12-2.5-2.5S63.47,30.76,64.85,30.76
			 M64.85,29.76c-1.93,0-3.5,1.57-3.5,3.5s1.57,3.5,3.5,3.5s3.5-1.57,3.5-3.5S66.78,29.76,64.85,29.76L64.85,29.76z"/>
	</g>
	<g>
		<path class="st4" d="M64.85,35.48c-1.23,0-2.22-1-2.22-2.22s1-2.22,2.22-2.22c1.22,0,2.22,1,2.22,2.22S66.08,35.48,64.85,35.48z"
			/>
		<path class="st4" d="M64.85,31.54c0.95,0,1.72,0.77,1.72,1.72s-0.77,1.72-1.72,1.72c-0.95,0-1.72-0.77-1.72-1.72
			S63.9,31.54,64.85,31.54 M64.85,30.54c-1.5,0-2.72,1.22-2.72,2.72c0,1.5,1.22,2.72,2.72,2.72c1.5,0,2.72-1.22,2.72-2.72
			C67.57,31.76,66.35,30.54,64.85,30.54L64.85,30.54z"/>
	</g>
	<g>
		<circle class="st3" cx="314.12" cy="14.68" r="3"/>
		<path class="st3" d="M314.12,12.18c1.38,0,2.5,1.12,2.5,2.5s-1.12,2.5-2.5,2.5s-2.5-1.12-2.5-2.5S312.74,12.18,314.12,12.18
			 M314.12,11.18c-1.93,0-3.5,1.57-3.5,3.5c0,1.93,1.57,3.5,3.5,3.5s3.5-1.57,3.5-3.5C317.62,12.75,316.05,11.18,314.12,11.18
			L314.12,11.18z"/>
	</g>
	<g>
		<path class="st4" d="M314.12,16.9c-1.23,0-2.22-1-2.22-2.22c0-1.22,1-2.22,2.22-2.22c1.22,0,2.22,1,2.22,2.22
			C316.34,15.91,315.34,16.9,314.12,16.9z"/>
		<path class="st4" d="M314.12,12.96c0.95,0,1.72,0.77,1.72,1.72c0,0.95-0.77,1.72-1.72,1.72s-1.72-0.77-1.72-1.72
			C312.39,13.73,313.17,12.96,314.12,12.96 M314.12,11.96c-1.5,0-2.72,1.22-2.72,2.72c0,1.5,1.22,2.72,2.72,2.72
			s2.72-1.22,2.72-2.72C316.84,13.18,315.62,11.96,314.12,11.96L314.12,11.96z"/>
	</g>
	<g>
		<circle class="st3" cx="314.47" cy="33.44" r="3"/>
		<path class="st3" d="M314.47,30.94c1.38,0,2.5,1.12,2.5,2.5s-1.12,2.5-2.5,2.5s-2.5-1.12-2.5-2.5S313.09,30.94,314.47,30.94
			 M314.47,29.94c-1.93,0-3.5,1.57-3.5,3.5c0,1.93,1.57,3.5,3.5,3.5s3.5-1.57,3.5-3.5C317.97,31.51,316.4,29.94,314.47,29.94
			L314.47,29.94z"/>
	</g>
	<g>
		<path class="st4" d="M314.47,35.66c-1.23,0-2.22-1-2.22-2.22c0-1.22,1-2.22,2.22-2.22c1.22,0,2.22,1,2.22,2.22
			C316.69,34.67,315.69,35.66,314.47,35.66z"/>
		<path class="st4" d="M314.47,31.72c0.95,0,1.72,0.77,1.72,1.72s-0.77,1.72-1.72,1.72c-0.95,0-1.72-0.77-1.72-1.72
			S313.52,31.72,314.47,31.72 M314.47,30.72c-1.5,0-2.72,1.22-2.72,2.72c0,1.5,1.22,2.72,2.72,2.72c1.5,0,2.72-1.22,2.72-2.72
			C317.19,31.94,315.97,30.72,314.47,30.72L314.47,30.72z"/>
	</g>
</g>
</svg>
