<?xml version="1.0" encoding="utf-8"?>
<!-- Generator: Adobe Illustrator 27.4.0, SVG Export Plug-In . SVG Version: 6.00 Build 0)  -->
<svg version="1.1" id="Layer_1" xmlns="http://www.w3.org/2000/svg" xmlns:xlink="http://www.w3.org/1999/xlink" x="0px" y="0px"
	 viewBox="0 0 71.3 65.4" style="enable-background:new 0 0 71.3 65.4;" xml:space="preserve">
<style type="text/css">
	.st0{fill:#CCCCCC;}
	.st1{fill:#67686B;}
	.st2{opacity:0.5;fill:#939598;enable-background:new    ;}
	.st3{fill:#939598;}
	.st4{opacity:0.5;fill:#FFFFFF;enable-background:new    ;}
	.st5{fill:#2B2E30;}
</style>
<g>
	<g>
		<path class="st0" d="M55,15.2c0,0,9.9-2.5,13.6,3.3c3.6,5.8-1.7,29.5-9.6,36.4l-1.2-5.7c0,0,5.3-7.3,7.5-18S63.5,17.1,55,19.1
			V15.2L55,15.2z"/>
		<path class="st1" d="M58.9,55.1c-0.1,0-0.2-0.1-0.2-0.2l-1.2-5.7c0-0.1,0-0.1,0-0.2c0-0.1,5.3-7.4,7.5-17.9c1-5,0.7-8.5-0.9-10.4
			c-1.6-2-4.7-2.5-9.1-1.4c-0.1,0-0.2,0-0.2,0c-0.1,0-0.1-0.1-0.1-0.2v-3.9c0-0.1,0.1-0.2,0.2-0.2c0.1,0,2.2-0.5,4.8-0.5
			c3,0,7,0.7,9,4c3.7,6-1.6,29.7-9.7,36.7C59.1,55.1,59,55.1,58.9,55.1L58.9,55.1z M55.3,15.4v3.4c4.4-1,7.5-0.5,9.2,1.6
			c1.7,2.1,2,5.7,1,10.8c-2,10-6.9,17.1-7.5,18l1.1,5.1c7.6-7.1,12.8-30.1,9.3-35.8c-1.9-3.1-5.7-3.7-8.6-3.7
			C57.7,14.9,55.9,15.3,55.3,15.4z"/>
	</g>
	<path class="st2" d="M55,19.1v-3.9c0,0,1.6-0.4,3.8-0.5c-0.1,0.1-0.1,0.3-0.1,0.5c0.3,1.2,2.1,1.3,3,1.5c2.5,0.5,4.7,1.5,5.5,4.2
		c0.6,2.1,0.5,4.3,0.3,6.4c-0.3,3-0.8,6-1.5,9c-1.3,5.4-3.4,10.4-5,15.7c0,0.1,0,0.3,0.1,0.3c-0.7,1-1.5,1.9-2.3,2.6l-1.2-5.7
		c0,0,5.3-7.3,7.5-18C67.5,20.5,63.6,17.1,55,19.1z"/>
	<g>
		<path class="st3" d="M27.3,14.8c0,0,1.5-11.1,9.3-13.3c0,0,1.4-0.4,2.2,1.2s3.8,14.5,3.8,14.5L27.3,14.8z"/>
		<path class="st1" d="M42.5,17.4L27.2,15c-0.1,0-0.2-0.1-0.2-0.3c0-0.1,1.7-11.3,9.4-13.5c0,0,0.2-0.1,0.5-0.1c0.5,0,1.4,0.2,2,1.4
			c0.8,1.6,3.7,14,3.8,14.6c0,0.1,0,0.2-0.1,0.2C42.6,17.3,42.6,17.4,42.5,17.4L42.5,17.4z M36.6,1.7c-6.9,2-8.8,11.3-9,12.9
			l14.6,2.2c-0.5-2.1-3-12.7-3.7-14.1c-0.4-0.9-1-1.1-1.5-1.1C36.8,1.6,36.6,1.7,36.6,1.7z"/>
	</g>
	<path class="st2" d="M36.7,2.7c0.4,0.6,0.7,1.4,0.9,2.1c0.5,1.6,1.1,3.2,1.6,4.8c0.8,2.5,1.6,5,2.5,7.5l-14.4-2.2
		c0,0,1.4-10.1,8.2-12.9C35.9,1.9,36.3,2.1,36.7,2.7z"/>
	<path class="st4" d="M35,2.1c-2.2,2.5-4.3,5.8-3.6,9c0.4,1.7,3,1.5,4.3,1.7c1.6,0.3,3.2,0.6,4.8,0.7c0.4,1.1,0.8,2.3,1.1,3.4
		l-14.4-2.2C27.3,14.8,28.6,5.2,35,2.1z"/>
	<g>
		<path class="st0" d="M12.2,11.4c0,0,0.9,0.8,0.9,0.9c0.7,0.8,1.4,1.6,2,2.5c1.7,2.6,2.7,5.9,2.2,9c-0.1,0.7-0.3,1.4-0.6,2.1
			l9.7,11.2l-4,19.2l-9.9-25.6c-2.4,1.1-5.2,0.8-7.6,0c-0.2-0.1-2.7-1-2.7-1C2.3,29.7,12.2,11.4,12.2,11.4z"/>
		<path class="st1" d="M22.2,56.4L12.4,31c-2.1,0.9-4.9,0.8-7.5-0.1c-0.1,0-0.3-0.1-0.6-0.2c-0.7-0.2-2-0.7-2-0.7l0,0
			c-0.1,0-0.2,0-0.2-0.1s0-0.2,0-0.2C2.2,29.5,12,11.3,12,11.3c0.1-0.1,0.2-0.1,0.3-0.1c0,0,0,0,0.1,0l0.2,0.2
			c0.3,0.2,0.7,0.7,0.7,0.7c0.8,0.8,1.4,1.6,2,2.5c2,3,2.8,6.2,2.3,9.2c-0.1,0.7-0.3,1.4-0.5,2L26.6,37c0,0.1,0.1,0.1,0.1,0.2
			l-4,19.2c0,0.1-0.1,0.2-0.2,0.2l0,0C22.3,56.6,22.2,56.5,22.2,56.4z M16.5,26.1c-0.1-0.1-0.1-0.2,0-0.2c0.3-0.7,0.5-1.4,0.6-2.1
			c0.5-2.8-0.3-5.9-2.2-8.8c-0.6-0.9-1.2-1.7-2-2.5c0,0-0.4-0.4-0.7-0.6C11.1,14,3.8,27.5,2.7,29.6c0.3,0.1,0.8,0.3,1.7,0.6
			C4.7,30.4,5,30.5,5,30.5c1.3,0.5,2.7,0.7,4,0.7s2.4-0.2,3.4-0.7c0.1,0,0.1,0,0.2,0c0.1,0,0.1,0.1,0.1,0.1l9.6,24.8l3.8-18.2
			L16.5,26.1z"/>
	</g>
	<path class="st2" d="M12.1,11.5c1,2.5,0.6,5.5,0.1,8.2c-0.7,3.4-2,6.1-4.4,8.7c-0.2,0.2-0.1,0.5,0.2,0.5c3.5-0.3,6.9-1.8,8.4-5.2
		c0.4-1,0.8-2.2,0.9-3.5c0.2,1.2,0.2,2.4,0,3.6c-0.1,0.7-0.3,1.4-0.6,2.1l0,0c-0.4,0.8-0.8,1.7-0.7,2.4c0.2,1.2,0.8,2.4,1.5,3.4
		c0.8,1.2,3.5,5.8,4.4,6.5c0.1,0.1,0.3,0.1,0.4,0c0.9-1.1,1.3-2.5,1.7-3.8l2.3,2.6l-4,19.2l-9.9-25.6c-2.4,1.1-5.2,0.8-7.6,0
		c-0.2-0.1-2.7-1-2.7-1C2.3,29.7,11.5,12.7,12.1,11.5z"/>
	<g>
		<path class="st0" d="M21.8,53.5l5.4-38.7c-0.3-1.2,1.9-1.4,1.9-1.4h9.6h5.6h9.6c0,0,2.2,0.1,1.9,1.4l5.4,38.7
			c0,0,1.4,10.1-3.9,10.8c-2.2,0.3-5.3,0.5-8.7,0.7c-2.3,0.1-4.7,0.2-7.1,0.2c-2.4-0.1-4.8-0.1-7.1-0.2c-3.4-0.2-6.5-0.4-8.7-0.7
			C20.5,63.6,21.8,53.5,21.8,53.5z"/>
		<path class="st1" d="M41.5,65.4c-2.5-0.1-4.9-0.1-7.1-0.2c-3.7-0.2-6.6-0.4-8.7-0.7c-1.1-0.1-2-0.7-2.7-1.6
			c-2.3-3-1.5-9.2-1.5-9.5L27,14.7c-0.1-0.3,0-0.6,0.2-0.8c0.5-0.7,1.8-0.8,2-0.8h24.7c0.2,0,1.5,0.1,2,0.8c0.2,0.2,0.2,0.5,0.2,0.8
			l5.4,38.7c0,0.3,0.8,6.5-1.5,9.5c-0.7,0.9-1.6,1.4-2.7,1.6c-2.1,0.3-5,0.5-8.7,0.7C46.4,65.2,44,65.3,41.5,65.4L41.5,65.4
			L41.5,65.4z M29.1,13.6c-0.3,0-1.3,0.2-1.6,0.6c-0.1,0.1-0.1,0.3-0.1,0.5v0.1L22,53.5c0,0.1-0.8,6.3,1.4,9.1
			c0.6,0.8,1.4,1.2,2.3,1.4c2.1,0.3,5,0.5,8.7,0.7c2.2,0.1,4.5,0.2,7,0.2c2.5-0.1,4.9-0.1,7-0.2c3.7-0.2,6.6-0.4,8.7-0.7
			c0.9-0.1,1.7-0.6,2.3-1.4c2.2-2.8,1.4-9.1,1.4-9.1l-5.4-38.7v-0.1c0-0.2,0-0.3-0.1-0.5c-0.3-0.4-1.2-0.6-1.6-0.6L29.1,13.6z"/>
	</g>
	<path class="st2" d="M25.7,64.2c2.2,0.3,5.3,0.5,8.7,0.7c2.3,0.1,4.7,0.2,7.1,0.2c2.4-0.1,4.8-0.1,7.1-0.2c3.4-0.2,6.5-0.4,8.7-0.7
		c5.3-0.7,3.9-10.8,3.9-10.8l-5.4-38.7c0.3-1.2-1.9-1.4-1.9-1.4H29.1c0,0-2.2,0.1-1.9,1.4l-5.4,38.7C21.8,53.5,20.5,63.6,25.7,64.2z
		 M39.3,19.6c0.7-3.2,3.2-4.2,6.3-4.4c1.8-0.1,3.6,0,5.4,0.3c1.3,0.2,2.8,0.2,3.5,1.4c0.6,1,3.1,25,3.7,29.7c0.4,3.1,1,6.6,0.2,9.7
		c-0.7,2.6-3,3.9-5.5,4.5c-5.1,1.1-11.6-0.8-13.2-6.2C38.6,50.8,38.7,22.7,39.3,19.6z"/>
	<g>
		<g>
			<path class="st3" d="M4.8,19.3c-2.7,5-3.9,9.7-2.6,10.4s4.5-2.9,7.2-7.9s3.9-9.7,2.7-10.4C10.8,10.6,7.6,14.2,4.8,19.3z"/>
			<path class="st1" d="M2.1,29.9c-0.9-0.5-0.7-2.4-0.3-3.8c0.5-2,1.5-4.4,2.9-6.9c2.6-4.7,5.5-8.1,7.1-8.1c0.2,0,0.3,0,0.5,0.1
				c0.9,0.5,0.7,2.4,0.3,3.9c-0.5,2-1.5,4.4-2.9,6.9c-2.6,4.6-5.6,8-7.2,8C2.4,30,2.2,30,2.1,29.9z M5.1,19.4
				c-1.3,2.4-2.3,4.8-2.8,6.8c-0.5,2.1-0.3,3.1,0,3.3c0.1,0,0.2,0,0.2,0c1.2,0,4-3,6.7-7.9c1.3-2.4,2.3-4.8,2.8-6.8
				c0.5-2.1,0.3-3.1-0.1-3.3c-0.1,0-0.1,0-0.2,0C10.6,11.5,7.7,14.4,5.1,19.4z"/>
		</g>
		<path class="st5" d="M10.9,12.7c-0.2,0.4-0.3,0.8-0.2,0.8s0.4-0.2,0.6-0.6c0.2-0.4,0.3-0.8,0.2-0.8C11.3,12.1,11.1,12.3,10.9,12.7
			z"/>
		<path class="st5" d="M2.8,28.4c-0.2,0.4-0.3,0.8-0.2,0.8S3,29,3.2,28.6s0.3-0.8,0.2-0.8S3,28,2.8,28.4z"/>
		<path class="st5" d="M6.9,20.6c-0.2,0.4-0.3,0.8-0.2,0.8c0.1,0,0.3-0.2,0.6-0.6S7.6,20,7.5,20C7.4,19.9,7.1,20.2,6.9,20.6z"/>
		<path class="st5" d="M4.9,20.1c-0.2,0.4-0.3,0.8-0.2,0.8c0.1,0,0.3-0.2,0.6-0.6s0.3-0.8,0.2-0.8C5.4,19.4,5.1,19.7,4.9,20.1z"/>
		<path class="st5" d="M8.8,21.2C8.6,21.6,8.5,22,8.6,22s0.4-0.2,0.6-0.6s0.3-0.8,0.2-0.8C9.3,20.5,9,20.8,8.8,21.2z"/>
		<path class="st5" d="M11,16.6c-0.2,0.4-0.3,0.8-0.2,0.8s0.4-0.2,0.6-0.6c0.2-0.4,0.3-0.8,0.2-0.8C11.5,16,11.2,16.3,11,16.6z"/>
		<path class="st5" d="M7.5,15.7c-0.2,0.4-0.3,0.8-0.2,0.8c0.1,0,0.3-0.2,0.6-0.6c0.2-0.4,0.3-0.8,0.2-0.8
			C7.9,15.1,7.7,15.3,7.5,15.7z"/>
		<path class="st5" d="M9,16.3c-0.2,0.4-0.3,0.8-0.2,0.8s0.4-0.2,0.6-0.6c0.2-0.4,0.3-0.8,0.2-0.8C9.5,15.6,9.2,15.9,9,16.3z"/>
		<path class="st5" d="M8.9,18.8c-0.2,0.4-0.3,0.8-0.2,0.8S9,19.4,9.2,19s0.3-0.8,0.2-0.8C9.3,18.2,9.1,18.4,8.9,18.8z"/>
		<path class="st5" d="M6.9,18.1c-0.2,0.4-0.3,0.8-0.2,0.8c0.1,0,0.3-0.2,0.6-0.6c0.2-0.4,0.3-0.8,0.2-0.8
			C7.3,17.5,7.1,17.8,6.9,18.1z"/>
		<path class="st5" d="M4.8,22.6c-0.2,0.4-0.3,0.8-0.2,0.8c0.1,0,0.3-0.2,0.6-0.6S5.4,22,5.3,22C5.2,21.9,5,22.2,4.8,22.6z"/>
		<path class="st5" d="M6.8,23.3c-0.2,0.4-0.3,0.8-0.2,0.8c0.1,0,0.3-0.2,0.6-0.6s0.3-0.8,0.2-0.8C7.2,22.6,7,22.9,6.8,23.3z"/>
		<path class="st5" d="M4.4,25c-0.2,0.4-0.3,0.8-0.2,0.8c0.1,0,0.3-0.2,0.6-0.6s0.3-0.8,0.2-0.8C4.9,24.4,4.6,24.7,4.4,25z"/>
		<path class="st5" d="M3.1,23.7C3,24,2.9,24.2,3,24.3c0.1,0,0.2-0.2,0.4-0.4c0.2-0.3,0.2-0.5,0.2-0.6C3.5,23.2,3.3,23.4,3.1,23.7z"
			/>
		<path class="st5" d="M6.9,24.9c-0.2,0.3-0.2,0.5-0.2,0.6c0.1,0,0.2-0.2,0.4-0.5c0.2-0.3,0.2-0.5,0.2-0.6C7.2,24.4,7,24.6,6.9,24.9
			z"/>
		<path class="st5" d="M4.9,26.7c-0.2,0.3-0.2,0.5-0.2,0.6c0.1,0,0.2-0.2,0.4-0.5c0.2-0.3,0.2-0.5,0.2-0.6
			C5.3,26.2,5.1,26.4,4.9,26.7z"/>
		<path class="st5" d="M11.2,14.5c-0.1,0.3-0.2,0.5-0.1,0.6c0.1,0,0.2-0.2,0.4-0.4c0.1-0.3,0.2-0.5,0.1-0.6S11.4,14.2,11.2,14.5z"/>
		<path class="st5" d="M8.8,14c-0.1,0.3-0.2,0.5-0.1,0.6c0.1,0,0.2-0.2,0.4-0.5c0.1-0.3,0.2-0.5,0.1-0.6C9.1,13.6,8.9,13.8,8.8,14z"
			/>
		<path class="st5" d="M2.7,26c-0.2,0.3-0.2,0.5-0.2,0.6c0.1,0,0.2-0.2,0.4-0.4c0.2-0.3,0.2-0.5,0.2-0.6C3,25.6,2.8,25.8,2.7,26z"/>
	</g>
	<path class="st2" d="M37.4,1.9c0,0,0.7,0.1,1.1,1.3c0.4,1.2,2.7,9.8,2.7,9.8L37.4,1.9z"/>
</g>
</svg>
